%TF.GenerationSoftware,Novarm,DipTrace,3.0.0.2*%
%TF.CreationDate,2016-12-19T10:05:57+01:00*%
%FSLAX26Y26*%
%MOIN*%
%TF.FileFunction,Soldermask,Top*%
%TF.Part,Single*%
%AMOUTLINE1*
4,1,4,
-0.001392,-0.034799,
-0.034799,-0.001392,
0.001392,0.034799,
0.034799,0.001392,
-0.001392,-0.034799,
0*%
%AMOUTLINE4*
4,1,15,
-0.027559,-0.043307,
-0.027559,0.056047,
-0.019685,0.040299,
-0.015748,0.048173,
-0.011811,0.040299,
-0.007874,0.048173,
-0.003937,0.040299,
0.0,0.048173,
0.003937,0.040299,
0.007874,0.048173,
0.011811,0.040299,
0.015748,0.048173,
0.019685,0.040299,
0.027559,0.056047,
0.027559,-0.043307,
-0.027559,-0.043307,
0*%
%AMOUTLINE7*
4,1,4,
-0.016703,-0.036191,
-0.036191,-0.016703,
0.016703,0.036191,
0.036191,0.016703,
-0.016703,-0.036191,
0*%
%AMOUTLINE10*
4,1,4,
-0.036191,0.016703,
-0.016703,0.036191,
0.036191,-0.016703,
0.016703,-0.036191,
-0.036191,0.016703,
0*%
%AMOUTLINE13*
4,1,4,
0.051501,-0.107179,
-0.107179,0.051501,
-0.051501,0.107179,
0.107179,-0.051501,
0.051501,-0.107179,
0*%
%ADD44R,0.059055X0.068898*%
%ADD46R,0.057874X0.152756*%
%ADD48R,0.152756X0.057874*%
%ADD50R,0.047244X0.051181*%
%ADD52R,0.051181X0.047244*%
%ADD54R,0.070866X0.07874*%
%ADD56R,0.185039X0.090551*%
%ADD58R,0.07874X0.070866*%
%ADD60C,0.707874*%
%ADD62R,0.207874X0.117717*%
%ADD64C,0.035433*%
%ADD70OUTLINE1*%
%ADD73OUTLINE4*%
%ADD76OUTLINE7*%
%ADD79OUTLINE10*%
%ADD82OUTLINE13*%
G75*
G01*
%LPD*%
D64*
X2755906Y1200787D3*
X1614173D3*
X2332677Y1877953D3*
D62*
X1270146Y2321504D3*
Y1456543D3*
D60*
Y1889024D3*
D58*
X2032112Y2149302D3*
Y2259538D3*
D56*
X1624895Y2516991D3*
X1979226D3*
D54*
X2184505Y2172432D3*
X2294741D3*
X1782375Y2024783D3*
X1892612D3*
X1776856Y2211908D3*
X1887092D3*
D70*
X1931913Y1938358D3*
X1884588Y1891033D3*
X2328319Y1559403D3*
X2280993Y1512077D3*
D52*
X1206755Y1196703D3*
X1273684D3*
D50*
X1792937Y1172604D3*
Y1239533D3*
X1950417Y1172604D3*
Y1239533D3*
X2107898Y1172604D3*
Y1239533D3*
X2265378Y1172604D3*
Y1239533D3*
X2422858Y1172604D3*
Y1239533D3*
X2580339Y1172604D3*
Y1239533D3*
D48*
X2749306Y1794535D3*
Y1894535D3*
Y1994535D3*
Y2094535D3*
Y2194535D3*
Y2294535D3*
X2574503D3*
Y2194535D3*
Y2094535D3*
Y1994535D3*
Y1894535D3*
Y1794535D3*
D46*
X2599306Y1444535D3*
X2699306D3*
X2799306D3*
X2899306D3*
X2999306D3*
X3099306D3*
Y1619339D3*
X2999306D3*
X2899306D3*
X2799306D3*
X2699306D3*
X2599306D3*
D73*
X2120079Y518146D3*
X2020079D3*
X1920079D3*
X1820079D3*
X1720079D3*
X1620079D3*
D50*
X2136944Y2298396D3*
Y2365325D3*
X1635457Y936383D3*
Y869454D3*
X1792937Y936383D3*
Y869454D3*
X1950417Y936383D3*
Y869454D3*
X2107898Y936383D3*
Y869454D3*
X2265378Y936383D3*
Y869454D3*
X2422858Y936383D3*
Y869454D3*
X2580339Y936383D3*
Y869454D3*
D44*
X2254816Y2274606D3*
Y2587598D3*
X2431982Y2274606D3*
Y2587598D3*
D76*
X2068134Y1832728D3*
X2090406Y1810457D3*
X2112676Y1788185D3*
X2134948Y1765915D3*
X2157218Y1743643D3*
X2179490Y1721373D3*
X2201760Y1699101D3*
X2224031Y1676831D3*
D79*
X2301980D3*
X2324251Y1699101D3*
X2346522Y1721373D3*
X2368794Y1743643D3*
X2391064Y1765915D3*
X2413336Y1788185D3*
X2435606Y1810457D3*
X2457878Y1832728D3*
D76*
Y1910676D3*
X2435606Y1932948D3*
X2413336Y1955219D3*
X2391064Y1977490D3*
X2368794Y1999761D3*
X2346522Y2022031D3*
X2324251Y2044303D3*
X2301980Y2066573D3*
D79*
X2224031D3*
X2201760Y2044303D3*
X2179490Y2022031D3*
X2157218Y1999761D3*
X2134948Y1977490D3*
X2112676Y1955219D3*
X2090406Y1932948D3*
X2068134Y1910676D3*
D82*
X2143983Y1488438D3*
X1875282Y1757138D3*
M02*
