%TF.GenerationSoftware,Novarm,DipTrace,3.0.0.2*%
%TF.CreationDate,2016-12-19T10:05:58+01:00*%
%FSLAX26Y26*%
%MOIN*%
%TF.FileFunction,Soldermask,Bot*%
%TF.Part,Single*%
%ADD68C,0.013895*%
G75*
G01*
%LPD*%
X2547502Y1040074D2*
D68*
Y949642D1*
X2517358D1*
X2504425Y954019D1*
X2495770Y962575D1*
X2491492Y971230D1*
X2487214Y984064D1*
Y1005652D1*
X2491492Y1018585D1*
X2495770Y1027141D1*
X2504425Y1035796D1*
X2517358Y1040074D1*
X2547502D1*
X2459424D2*
X2455146Y1035796D1*
X2450769Y1040074D1*
X2455146Y1044451D1*
X2459424Y1040074D1*
X2455146Y1009930D2*
Y949642D1*
X2375623Y996997D2*
X2379901Y1005652D1*
X2392834Y1009930D1*
X2405767D1*
X2418700Y1005652D1*
X2422978Y996997D1*
X2418700Y988441D1*
X2410045Y984064D1*
X2388556Y979786D1*
X2379901Y975508D1*
X2375623Y966853D1*
Y962575D1*
X2379901Y954019D1*
X2392834Y949642D1*
X2405767D1*
X2418700Y954019D1*
X2422978Y962575D1*
X2326344Y1009930D2*
X2334899Y1005652D1*
X2343554Y996997D1*
X2347832Y984064D1*
Y975508D1*
X2343554Y962575D1*
X2334899Y954019D1*
X2326344Y949642D1*
X2313410D1*
X2304755Y954019D1*
X2296200Y962575D1*
X2291822Y975508D1*
Y984064D1*
X2296200Y996997D1*
X2304755Y1005652D1*
X2313410Y1009930D1*
X2326344D1*
X2264032Y1040074D2*
Y949642D1*
Y996997D2*
X2255376Y1005652D1*
X2246821Y1009930D1*
X2233888D1*
X2225332Y1005652D1*
X2216677Y996997D1*
X2212399Y984064D1*
Y975508D1*
X2216677Y962575D1*
X2225332Y954019D1*
X2233888Y949642D1*
X2246821D1*
X2255376Y954019D1*
X2264032Y962575D1*
X2184608Y984064D2*
X2132975D1*
Y992719D1*
X2137253Y1001374D1*
X2141531Y1005652D1*
X2150186Y1009930D1*
X2163119D1*
X2171675Y1005652D1*
X2180330Y996997D1*
X2184608Y984064D1*
Y975508D1*
X2180330Y962575D1*
X2171675Y954019D1*
X2163119Y949642D1*
X2150186D1*
X2141531Y954019D1*
X2132975Y962575D1*
X2100807Y1009930D2*
X2075041Y949642D1*
X2083596Y932431D1*
X2092252Y923776D1*
X2100807Y919498D1*
X2105185D1*
X2049175Y1009930D2*
X2075041Y949642D1*
X2021384Y1040074D2*
Y949642D1*
X1982585D1*
X1969652Y954019D1*
X1965374Y958297D1*
X1961096Y966853D1*
Y979786D1*
X1965374Y988441D1*
X1969652Y992719D1*
X1982585Y996997D1*
X1969652Y1001374D1*
X1965374Y1005652D1*
X1961096Y1014208D1*
Y1022863D1*
X1965374Y1031419D1*
X1969652Y1035796D1*
X1982585Y1040074D1*
X2021384D1*
Y996997D2*
X1982585D1*
X1881672Y1009930D2*
Y949642D1*
Y996997D2*
X1890228Y1005652D1*
X1898883Y1009930D1*
X1911717D1*
X1920372Y1005652D1*
X1928928Y996997D1*
X1933305Y984064D1*
Y975508D1*
X1928928Y962575D1*
X1920372Y954019D1*
X1911717Y949642D1*
X1898883D1*
X1890228Y954019D1*
X1881672Y962575D1*
X1802249Y1040074D2*
Y949642D1*
Y996997D2*
X1810805Y1005652D1*
X1819460Y1009930D1*
X1832393D1*
X1840949Y1005652D1*
X1849604Y996997D1*
X1853882Y984064D1*
Y975508D1*
X1849604Y962575D1*
X1840949Y954019D1*
X1832393Y949642D1*
X1819460D1*
X1810805Y954019D1*
X1802249Y962575D1*
X1722826Y1005652D2*
Y936709D1*
X1727103Y923875D1*
X1731381Y919498D1*
X1740036Y915220D1*
X1752970D1*
X1761525Y919498D1*
X1722826Y992719D2*
X1731381Y1001275D1*
X1740036Y1005652D1*
X1752970D1*
X1761525Y1001275D1*
X1770180Y992719D1*
X1774458Y979786D1*
Y971131D1*
X1770180Y958297D1*
X1761525Y949642D1*
X1752970Y945364D1*
X1740036D1*
X1731381Y949642D1*
X1722826Y958297D1*
X1695035Y984064D2*
X1643402D1*
Y992719D1*
X1647680Y1001374D1*
X1651958Y1005652D1*
X1660613Y1009930D1*
X1673546D1*
X1682102Y1005652D1*
X1690757Y996997D1*
X1695035Y984064D1*
Y975508D1*
X1690757Y962575D1*
X1682102Y954019D1*
X1673546Y949642D1*
X1660613D1*
X1651958Y954019D1*
X1643402Y962575D1*
X1528130Y1009930D2*
X1502264Y949642D1*
X1476497Y1009930D1*
X1405629Y949642D2*
Y1039975D1*
X1448706Y979786D1*
X1384140D1*
X1356350Y949642D2*
X1296062Y1039975D1*
X1251060Y949642D2*
X1207983Y1039975D1*
X1268271D1*
X2482833Y773230D2*
Y682798D1*
X2422545Y773230D2*
Y682798D1*
X2482833Y730153D2*
X2422545D1*
X2338844Y773230D2*
X2394754D1*
Y682798D1*
X2338844D1*
X2394754Y730153D2*
X2360332D1*
X2311053Y773230D2*
Y682798D1*
X2283262Y773230D2*
Y682798D1*
X2222974Y773230D2*
X2283262Y712942D1*
X2261774Y734531D2*
X2222974Y682798D1*
X2195184Y773230D2*
Y682798D1*
X2134896Y773230D2*
X2195184Y712942D1*
X2173695Y734531D2*
X2134896Y682798D1*
X2107105Y773230D2*
Y682798D1*
X1948756Y773230D2*
Y704387D1*
X1953033Y691453D1*
X1957411Y687176D1*
X1965966Y682798D1*
X1974622D1*
X1983177Y687176D1*
X1987455Y691453D1*
X1991833Y704387D1*
Y712942D1*
X1920965Y773230D2*
Y708664D1*
X1916687Y695731D1*
X1908032Y687176D1*
X1895099Y682798D1*
X1886543D1*
X1873610Y687176D1*
X1864955Y695731D1*
X1860677Y708664D1*
Y773230D1*
X1832886D2*
X1798464Y682798D1*
X1764043Y773230D1*
X1667309Y682798D2*
X1701830Y773230D1*
X1736252Y682798D1*
X1723319Y712942D2*
X1680242D1*
X1547659Y751642D2*
Y755920D1*
X1543381Y764575D1*
X1539103Y768853D1*
X1530448Y773131D1*
X1513237D1*
X1504681Y768853D1*
X1500403Y764575D1*
X1496026Y755920D1*
Y747364D1*
X1500403Y738709D1*
X1508959Y725875D1*
X1552036Y682798D1*
X1491748D1*
X1438091Y773131D2*
X1451025Y768853D1*
X1459680Y755920D1*
X1463958Y734431D1*
Y721498D1*
X1459680Y700009D1*
X1451025Y687076D1*
X1438091Y682798D1*
X1429536D1*
X1416603Y687076D1*
X1408047Y700009D1*
X1403670Y721498D1*
Y734431D1*
X1408047Y755920D1*
X1416603Y768853D1*
X1429536Y773131D1*
X1438091D1*
X1408047Y755920D2*
X1459680Y700009D1*
X1375879Y755920D2*
X1367224Y760297D1*
X1354291Y773131D1*
Y682798D1*
X1274867Y760297D2*
X1279145Y768853D1*
X1292078Y773131D1*
X1300634D1*
X1313567Y768853D1*
X1322222Y755920D1*
X1326500Y734431D1*
Y712942D1*
X1322222Y695731D1*
X1313567Y687076D1*
X1300634Y682798D1*
X1296356D1*
X1283522Y687076D1*
X1274867Y695731D1*
X1270589Y708664D1*
Y712942D1*
X1274867Y725875D1*
X1283522Y734431D1*
X1296356Y738709D1*
X1300634D1*
X1313567Y734431D1*
X1322222Y725875D1*
X1326500Y712942D1*
M02*
