%TF.GenerationSoftware,Novarm,DipTrace,3.0.0.2*%
%TF.CreationDate,2016-12-19T10:05:56+01:00*%
%FSLAX26Y26*%
%MOIN*%
%TF.FileFunction,Drawing,Top*%
%TF.Part,Single*%
%AMOUTLINE0*
4,1,4,
-0.001392,-0.029231,
-0.029231,-0.001392,
0.001392,0.029231,
0.029231,0.001392,
-0.001392,-0.029231,
0*%
%AMOUTLINE3*
4,1,15,
-0.023622,-0.03937,
-0.023622,0.03937,
-0.019685,0.031496,
-0.015748,0.03937,
-0.011811,0.031496,
-0.007874,0.03937,
-0.003937,0.031496,
0.0,0.03937,
0.003937,0.031496,
0.007874,0.03937,
0.011811,0.031496,
0.015748,0.03937,
0.019685,0.031496,
0.023622,0.03937,
0.023622,-0.03937,
-0.023622,-0.03937,
0*%
%AMOUTLINE6*
4,1,4,
-0.016703,-0.030623,
-0.030623,-0.016703,
0.016703,0.030623,
0.030623,0.016703,
-0.016703,-0.030623,
0*%
%AMOUTLINE9*
4,1,4,
-0.030623,0.016703,
-0.016703,0.030623,
0.030623,-0.016703,
0.016703,-0.030623,
-0.030623,0.016703,
0*%
%AMOUTLINE12*
4,1,4,
0.051501,-0.101612,
-0.101612,0.051501,
-0.051501,0.101612,
0.101612,-0.051501,
0.051501,-0.101612,
0*%
%ADD10C,0.009843*%
%ADD17C,0.000013*%
%ADD26C,0.031465*%
%ADD31C,0.027557*%
%ADD33C,0.027586*%
%ADD35C,0.027579*%
%ADD36C,0.015756*%
%ADD37C,0.003937*%
%ADD40O,0.025956X0.025765*%
%ADD65C,0.006176*%
%ADD66C,0.009264*%
%ADD67C,0.00772*%
%ADD22C,0.027559*%
%ADD23R,0.2X0.109843*%
%ADD24C,0.7*%
%ADD25R,0.070866X0.062992*%
%ADD27R,0.177165X0.082677*%
%ADD28R,0.062992X0.070866*%
%ADD29R,0.043307X0.03937*%
%ADD30R,0.03937X0.043307*%
%ADD32R,0.144882X0.05*%
%ADD34R,0.05X0.144882*%
%ADD38R,0.051181X0.061024*%
%ADD69OUTLINE0*%
%ADD72OUTLINE3*%
%ADD75OUTLINE6*%
%ADD78OUTLINE9*%
%ADD81OUTLINE12*%
G75*
G01*
%LPD*%
D22*
X2755906Y1200787D3*
X1614173D3*
X2332677Y1877953D3*
D23*
X1270146Y2321504D3*
Y1456543D3*
D24*
Y1889024D3*
X2063576Y2200089D2*
D10*
X2000647D1*
X2063576Y2192640D2*
X2000647D1*
X2063576D2*
Y2216199D1*
X2000647Y2192640D2*
Y2216199D1*
D25*
X2032112Y2149302D3*
Y2259538D3*
X2004826Y2719747D2*
D10*
Y2576033D1*
Y2719747D2*
X1664243D1*
X2004826Y2457948D2*
Y2314235D1*
X1664243D1*
X1599295Y2654784D2*
Y2576033D1*
Y2457948D2*
Y2379198D1*
Y2654784D2*
X1664243Y2719747D1*
X1599295Y2379198D2*
X1664243Y2314235D1*
D26*
X1565864Y2587854D3*
D27*
X1624895Y2516991D3*
X1979226D3*
X2235293Y2140967D2*
D10*
Y2203896D1*
X2227844Y2140967D2*
Y2203896D1*
Y2140967D2*
X2251403D1*
X2227844Y2203896D2*
X2251403D1*
D28*
X2184505Y2172432D3*
X2294741D3*
X1833163Y1993319D2*
D10*
Y2056248D1*
X1825714Y1993319D2*
Y2056248D1*
Y1993319D2*
X1849273D1*
X1825714Y2056248D2*
X1849273D1*
D28*
X1782375Y2024783D3*
X1892612D3*
X1827643Y2180444D2*
D10*
Y2243373D1*
X1820194Y2180444D2*
Y2243373D1*
Y2180444D2*
X1843753D1*
X1820194Y2243373D2*
X1843753D1*
D28*
X1776856Y2211908D3*
X1887092D3*
D69*
X1931913Y1938358D3*
X1884588Y1891033D3*
X2328319Y1559403D3*
X2280993Y1512077D3*
D29*
X1206755Y1196703D3*
X1273684D3*
D30*
X1792937Y1172604D3*
Y1239533D3*
X1950417Y1172604D3*
Y1239533D3*
X2107898Y1172604D3*
Y1239533D3*
X2265378Y1172604D3*
Y1239533D3*
X2422858Y1172604D3*
Y1239533D3*
X2580339Y1172604D3*
Y1239533D3*
D31*
X2526070Y1742580D3*
X2561907Y1748491D2*
D10*
Y1744551D1*
X2761902D1*
Y1748491D1*
X2561907Y2344535D2*
X2761902D1*
X2561907D2*
Y2340595D1*
X2761902Y2344535D2*
Y2340595D1*
D32*
X2749306Y1794535D3*
Y1894535D3*
Y1994535D3*
Y2094535D3*
Y2194535D3*
Y2294535D3*
X2574503D3*
Y2194535D3*
Y2094535D3*
Y1994535D3*
Y1894535D3*
Y1794535D3*
D33*
X2547350Y1667771D3*
X2553262Y1631934D2*
D10*
X2549321D1*
Y1431940D1*
X2553262D1*
X3149306Y1631934D2*
Y1431940D1*
Y1631934D2*
X3145365D1*
X3149306Y1431940D2*
X3145365D1*
D34*
X2599306Y1444535D3*
X2699306D3*
X2799306D3*
X2899306D3*
X2999306D3*
X3099306D3*
Y1619339D3*
X2999306D3*
X2899306D3*
X2799306D3*
X2699306D3*
X2599306D3*
D35*
X2173219Y520173D3*
D72*
X2120079Y518146D3*
X2020079D3*
X1920079D3*
X1820079D3*
X1720079D3*
X1620079D3*
D30*
X2136944Y2298396D3*
Y2365325D3*
X1635457Y936383D3*
Y869454D3*
X1792937Y936383D3*
Y869454D3*
X1950417Y936383D3*
Y869454D3*
X2107898Y936383D3*
Y869454D3*
X2265378Y936383D3*
Y869454D3*
X2422858Y936383D3*
Y869454D3*
X2580339Y936383D3*
Y869454D3*
D36*
X2209545Y2265731D3*
X2278436Y2431102D2*
D10*
G02X2278436Y2431102I64966J0D01*
G01*
X2315843Y2383864D2*
D37*
Y2478341D1*
X2370961Y2383864D2*
Y2478341D1*
X2315843Y2431102D2*
X2321765D1*
X2370961D2*
X2365039D1*
X2321765D2*
G02X2321765Y2431102I3925J0D01*
G01*
X2355205D2*
G02X2355205Y2431102I3925J0D01*
G01*
X2329615D2*
X2361127Y2417339D1*
X2213484Y2312988D2*
D10*
X2473320D1*
Y2549217D1*
X2213484D1*
Y2312988D1*
D38*
X2254816Y2274606D3*
Y2587598D3*
X2431982Y2274606D3*
Y2587598D3*
D75*
X2068134Y1832728D3*
X2090406Y1810457D3*
X2112676Y1788185D3*
X2134948Y1765915D3*
X2157218Y1743643D3*
X2179490Y1721373D3*
X2201760Y1699101D3*
X2224031Y1676831D3*
D78*
X2301980D3*
X2324251Y1699101D3*
X2346522Y1721373D3*
X2368794Y1743643D3*
X2391064Y1765915D3*
X2413336Y1788185D3*
X2435606Y1810457D3*
X2457878Y1832728D3*
D75*
Y1910676D3*
X2435606Y1932948D3*
X2413336Y1955219D3*
X2391064Y1977490D3*
X2368794Y1999761D3*
X2346522Y2022031D3*
X2324251Y2044303D3*
X2301980Y2066573D3*
D78*
X2224031D3*
X2201760Y2044303D3*
X2179490Y2022031D3*
X2157218Y1999761D3*
X2134948Y1977490D3*
X2112676Y1955219D3*
X2090406Y1932948D3*
X2068134Y1910676D3*
X2120063Y1448727D2*
D10*
G02X2048566Y1470699I-14874J78912D01*
G01*
X2136958Y1431879D2*
X2108642Y1403601D1*
X1857579Y1661645D2*
G02X1835587Y1733225I56736J56599D01*
G01*
X1818739Y1750073D2*
X1790424Y1721796D1*
X1949557Y1753620D2*
X2140497Y1562674D1*
X1970746Y1774804D2*
X2161686Y1583857D1*
X2069756Y1491931D2*
X1878815Y1682878D1*
X1924781Y1842000D2*
X2228841Y1537944D1*
X1924781Y1842000D2*
G03X1910623Y1842000I-7079J-6999D01*
G01*
X1882355Y1813722D1*
X1949557Y1753620D2*
G03X1930538Y1765493I-36105J-36668D01*
G01*
X1878815Y1682878D2*
G02X1866923Y1701893I35835J35638D01*
G01*
X1970746Y1774804D2*
G03X1899202Y1796825I-56550J-56496D01*
G01*
X2183678Y1512376D2*
G03X2161686Y1583857I-78419J14998D01*
G01*
X2152342Y1543707D2*
G03X2140497Y1562674I-47705J-16611D01*
G01*
X2088727Y1480108D2*
G02X2069756Y1491931I16208J47138D01*
G01*
X2228841Y1523805D2*
X2200573Y1495478D1*
X2228841Y1523805D2*
G03X2228841Y1537944I-7077J7069D01*
G01*
X2048566Y1470699D2*
X1857579Y1661645D1*
X1790424Y1707608D2*
X2094484Y1403601D1*
X1790424Y1707608D2*
G02X1790424Y1721796I7136J7094D01*
G01*
X2108642Y1403601D2*
G02X2094484Y1403601I-7079J6999D01*
G01*
X1999014Y1598095D2*
X2034361Y1633417D1*
X2020251Y1647506D1*
X1984904Y1612184D1*
X1999014Y1598095D1*
X2009633Y1587454D2*
X2027330Y1605139D1*
X2044980Y1622776D1*
X2027330Y1605139D2*
X2037948Y1594498D1*
X1974285Y1622776D2*
X1991983Y1640462D1*
X2009633Y1658147D1*
X1991983Y1640462D2*
X1981317Y1651103D1*
D40*
X2157109Y1378994D3*
D81*
X2143983Y1488438D3*
X1875282Y1757138D3*
X2263005Y1677953D2*
D17*
X2070879Y1870079D1*
X2263005Y2062205D1*
X2455131Y1870079D1*
X2263005Y1677953D1*
X1231483Y1193228D2*
Y1205039D1*
X1255105D1*
Y1193228D1*
X1231483D1*
X1782375Y1200787D2*
Y1212598D1*
X1805997D1*
Y1200787D1*
X1782375D1*
X1939856D2*
Y1212598D1*
X1963478D1*
Y1200787D1*
X1939856D1*
X2097336D2*
Y1212598D1*
X2120958D1*
Y1200787D1*
X2097336D1*
X2254816D2*
Y1212598D1*
X2278438D1*
Y1200787D1*
X2254816D1*
X2412297D2*
Y1212598D1*
X2435919D1*
Y1200787D1*
X2412297D1*
X2569777D2*
Y1212598D1*
X2593399D1*
Y1200787D1*
X2569777D1*
X2074472Y830196D2*
D10*
X2174472D1*
Y554605D1*
X2074472D1*
Y830196D1*
X1974472D2*
X2074472D1*
Y554605D1*
X1974472D1*
Y830196D1*
X1874472D2*
X1974472D1*
Y554605D1*
X1874472D1*
Y830196D1*
X1774472D2*
X1874472D1*
Y554605D1*
X1774472D1*
Y830196D1*
X1674472D2*
X1774472D1*
Y554605D1*
X1674472D1*
Y830196D1*
X1574472D2*
X1674472D1*
Y554605D1*
X1574472D1*
Y830196D1*
X2548094Y1531693D2*
X2648094D1*
Y1295472D1*
X2548094D1*
Y1531693D1*
X2648094D2*
X2748094D1*
Y1295472D1*
X2648094D1*
Y1531693D1*
X2748094D2*
X2848094D1*
Y1295472D1*
X2748094D1*
Y1531693D1*
X2848094D2*
X2948094D1*
Y1295472D1*
X2848094D1*
Y1531693D1*
X2948094D2*
X3048094D1*
Y1295472D1*
X2948094D1*
Y1531693D1*
X3048094D2*
X3148094D1*
Y1295472D1*
X3048094D1*
Y1531693D1*
X2548094Y1767913D2*
X2648094D1*
Y1531693D1*
X2548094D1*
Y1767913D1*
X2648094D2*
X2748094D1*
Y1531693D1*
X2648094D1*
Y1767913D1*
X2748094D2*
X2848094D1*
Y1531693D1*
X2748094D1*
Y1767913D1*
X2848094D2*
X2948094D1*
Y1531693D1*
X2848094D1*
Y1767913D1*
X2948094D2*
X3048094D1*
Y1531693D1*
X2948094D1*
Y1767913D1*
X3048094D2*
X3148094D1*
Y1531693D1*
X3048094D1*
Y1767913D1*
X2425575Y2345584D2*
X2661795D1*
Y2245584D1*
X2425575D1*
Y2345584D1*
Y2245584D2*
X2661795D1*
Y2145584D1*
X2425575D1*
Y2245584D1*
Y2145584D2*
X2661795D1*
Y2045584D1*
X2425575D1*
Y2145584D1*
Y2045584D2*
X2661795D1*
Y1945584D1*
X2425575D1*
Y2045584D1*
Y1945584D2*
X2661795D1*
Y1845584D1*
X2425575D1*
Y1945584D1*
Y1845584D2*
X2661795D1*
Y1745584D1*
X2425575D1*
Y1845584D1*
X2661795Y2345584D2*
X2898016D1*
Y2245584D1*
X2661795D1*
Y2345584D1*
Y2245584D2*
X2898016D1*
Y2145584D1*
X2661795D1*
Y2245584D1*
Y2145584D2*
X2898016D1*
Y2045584D1*
X2661795D1*
Y2145584D1*
Y2045584D2*
X2898016D1*
Y1945584D1*
X2661795D1*
Y2045584D1*
Y1945584D2*
X2898016D1*
Y1845584D1*
X2661795D1*
Y1945584D1*
Y1845584D2*
X2898016D1*
Y1745584D1*
X2661795D1*
Y1845584D1*
X2097943Y740298D2*
D66*
X2158231D1*
X2097943Y763246D1*
X2158231Y786194D1*
X2097943D1*
X2158231Y721771D2*
X2097943D1*
X2149609Y663052D2*
X2155379Y668755D1*
X2158231Y677377D1*
Y688851D1*
X2155379Y697473D1*
X2149609Y703244D1*
X2143905D1*
X2138135Y700325D1*
X2135283Y697473D1*
X2132431Y691770D1*
X2126661Y674526D1*
X2123809Y668755D1*
X2120891Y665904D1*
X2115187Y663052D1*
X2106565D1*
X2100861Y668755D1*
X2097943Y677378D1*
Y688851D1*
X2100861Y697474D1*
X2106565Y703244D1*
X2158231Y627280D2*
X2155379Y633051D1*
X2149609Y638754D1*
X2143905Y641673D1*
X2135283Y644525D1*
X2120891D1*
X2112335Y641673D1*
X2106565Y638754D1*
X2100861Y633051D1*
X2097943Y627280D1*
Y615807D1*
X2100861Y610103D1*
X2106565Y604333D1*
X2112335Y601481D1*
X2120891Y598629D1*
X2135283D1*
X2143905Y601481D1*
X2149609Y604333D1*
X2155379Y610103D1*
X2158231Y615806D1*
Y627280D1*
X2058231Y786194D2*
X1997943Y763246D1*
X2058231Y740298D1*
X2043905Y678727D2*
X2049609Y681579D1*
X2055379Y687349D1*
X2058231Y693053D1*
Y704527D1*
X2055379Y710297D1*
X2049609Y716001D1*
X2043905Y718919D1*
X2035283Y721771D1*
X2020891D1*
X2012335Y718919D1*
X2006565Y716001D1*
X2000861Y710297D1*
X1997943Y704527D1*
Y693053D1*
X2000861Y687349D1*
X2006565Y681579D1*
X2012335Y678727D1*
X2043905Y617156D2*
X2049609Y620008D1*
X2055379Y625778D1*
X2058231Y631482D1*
Y642956D1*
X2055379Y648726D1*
X2049609Y654430D1*
X2043905Y657348D1*
X2035283Y660200D1*
X2020891D1*
X2012335Y657348D1*
X2006565Y654430D1*
X2000861Y648726D1*
X1997943Y642956D1*
Y631482D1*
X2000861Y625778D1*
X2006565Y620008D1*
X2012335Y617156D1*
X1949609Y746002D2*
X1955379Y751705D1*
X1958231Y760327D1*
Y771801D1*
X1955379Y780423D1*
X1949609Y786194D1*
X1943905D1*
X1938135Y783275D1*
X1935283Y780423D1*
X1932431Y774720D1*
X1926661Y757476D1*
X1923809Y751705D1*
X1920891Y748854D1*
X1915187Y746002D1*
X1906565D1*
X1900861Y751705D1*
X1897943Y760327D1*
Y771801D1*
X1900861Y780423D1*
X1906565Y786194D1*
X1943905Y684431D2*
X1949609Y687283D1*
X1955379Y693053D1*
X1958231Y698756D1*
Y710230D1*
X1955379Y716001D1*
X1949609Y721704D1*
X1943905Y724623D1*
X1935283Y727475D1*
X1920891D1*
X1912335Y724623D1*
X1906565Y721704D1*
X1900861Y716001D1*
X1897943Y710230D1*
Y698757D1*
X1900861Y693053D1*
X1906565Y687283D1*
X1912335Y684431D1*
X1958231Y665904D2*
X1897943D1*
X1958231Y625712D2*
X1918039Y665904D1*
X1932431Y651578D2*
X1897943Y625712D1*
X1797943Y740298D2*
X1858231D1*
X1797943Y763246D1*
X1858231Y786194D1*
X1797943D1*
X1858231Y704527D2*
X1855379Y710297D1*
X1849609Y716001D1*
X1843905Y718919D1*
X1835283Y721771D1*
X1820891D1*
X1812335Y718919D1*
X1806565Y716001D1*
X1800861Y710297D1*
X1797943Y704527D1*
Y693053D1*
X1800861Y687349D1*
X1806565Y681579D1*
X1812335Y678727D1*
X1820891Y675875D1*
X1835283D1*
X1843905Y678727D1*
X1849609Y681579D1*
X1855379Y687349D1*
X1858231Y693053D1*
Y704527D1*
X1849609Y617156D2*
X1855379Y622860D1*
X1858231Y631482D1*
Y642956D1*
X1855379Y651578D1*
X1849609Y657348D1*
X1843905D1*
X1838135Y654430D1*
X1835283Y651578D1*
X1832431Y645874D1*
X1826661Y628630D1*
X1823809Y622860D1*
X1820891Y620008D1*
X1815187Y617156D1*
X1806565D1*
X1800861Y622860D1*
X1797943Y631482D1*
Y642956D1*
X1800861Y651578D1*
X1806565Y657348D1*
X1858231Y598629D2*
X1797943D1*
X1729513Y786194D2*
Y760394D1*
X1732431Y751772D1*
X1735283Y748853D1*
X1740987Y746002D1*
X1746757D1*
X1752461Y748853D1*
X1755379Y751772D1*
X1758231Y760394D1*
Y786194D1*
X1697943D1*
X1729513Y766098D2*
X1697943Y746002D1*
X1749609Y687283D2*
X1755379Y692986D1*
X1758231Y701608D1*
Y713082D1*
X1755379Y721704D1*
X1749609Y727475D1*
X1743905D1*
X1738135Y724556D1*
X1735283Y721704D1*
X1732431Y716001D1*
X1726661Y698757D1*
X1723809Y692986D1*
X1720891Y690134D1*
X1715187Y687283D1*
X1706565D1*
X1700861Y692986D1*
X1697943Y701608D1*
Y713082D1*
X1700861Y721704D1*
X1706565Y727475D1*
X1758231Y648659D2*
X1697943D1*
X1758231Y668755D2*
Y628563D1*
X1643905Y743150D2*
X1649609Y746002D1*
X1655379Y751772D1*
X1658231Y757476D1*
Y768949D1*
X1655379Y774720D1*
X1649609Y780423D1*
X1643905Y783342D1*
X1635283Y786194D1*
X1620891D1*
X1612335Y783342D1*
X1606565Y780423D1*
X1600861Y774720D1*
X1597943Y768950D1*
Y757476D1*
X1600861Y751772D1*
X1606565Y746002D1*
X1612335Y743150D1*
X1620891D1*
Y757476D1*
X1658231Y684431D2*
X1597943D1*
X1658231Y724623D1*
X1597943D1*
X1658231Y665904D2*
X1597943D1*
Y645808D1*
X1600861Y637186D1*
X1606565Y631415D1*
X1612335Y628563D1*
X1620891Y625712D1*
X1635283D1*
X1643905Y628563D1*
X1649609Y631415D1*
X1655379Y637185D1*
X1658231Y645808D1*
Y665904D1*
X2596271Y1359869D2*
D67*
Y1381425D1*
X2593894Y1388554D1*
X2591462Y1390986D1*
X2586709Y1393363D1*
X2579524D1*
X2574771Y1390986D1*
X2572339Y1388554D1*
X2569962Y1381425D1*
Y1359869D1*
X2620202D1*
X2569962Y1439863D2*
Y1408802D1*
X2620202D1*
Y1439863D1*
X2593894Y1408802D2*
Y1427925D1*
X2579579Y1455303D2*
X2577147Y1460111D1*
X2570018Y1467296D1*
X2620202D1*
X2696271Y1347904D2*
Y1369459D1*
X2693894Y1376588D1*
X2691462Y1379020D1*
X2686709Y1381397D1*
X2679524D1*
X2674771Y1379020D1*
X2672339Y1376588D1*
X2669962Y1369459D1*
Y1347904D1*
X2720202D1*
X2669962Y1396836D2*
X2720202D1*
Y1413583D1*
X2717770Y1420768D1*
X2713017Y1425576D1*
X2708209Y1427953D1*
X2701079Y1430329D1*
X2689086D1*
X2681901Y1427953D1*
X2677147Y1425576D1*
X2672339Y1420768D1*
X2669962Y1413583D1*
Y1396836D1*
X2720202Y1455330D2*
X2670018Y1479262D1*
Y1445769D1*
X2796271Y1347904D2*
Y1369459D1*
X2793894Y1376588D1*
X2791462Y1379020D1*
X2786709Y1381397D1*
X2779524D1*
X2774771Y1379020D1*
X2772339Y1376588D1*
X2769962Y1369459D1*
Y1347904D1*
X2820202D1*
X2769962Y1396836D2*
X2820202D1*
Y1418391D1*
X2817770Y1425576D1*
X2815394Y1427953D1*
X2810641Y1430329D1*
X2803456D1*
X2798647Y1427953D1*
X2796271Y1425576D1*
X2793894Y1418391D1*
X2791462Y1425576D1*
X2789086Y1427953D1*
X2784332Y1430329D1*
X2779524D1*
X2774771Y1427953D1*
X2772339Y1425576D1*
X2769962Y1418391D1*
Y1396836D1*
X2793894D2*
Y1418391D1*
X2770018Y1460139D2*
X2772394Y1452954D1*
X2779579Y1448145D1*
X2791517Y1445769D1*
X2798702D1*
X2810641Y1448145D1*
X2817826Y1452954D1*
X2820202Y1460139D1*
Y1464892D1*
X2817826Y1472077D1*
X2810641Y1476830D1*
X2798702Y1479262D1*
X2791517D1*
X2779579Y1476830D1*
X2772394Y1472077D1*
X2770018Y1464892D1*
Y1460139D1*
X2779579Y1476830D2*
X2810641Y1448145D1*
X2896271Y1347904D2*
Y1369459D1*
X2893894Y1376588D1*
X2891462Y1379020D1*
X2886709Y1381397D1*
X2879524D1*
X2874771Y1379020D1*
X2872339Y1376588D1*
X2869962Y1369459D1*
Y1347904D1*
X2920202D1*
X2869962Y1396836D2*
X2920202D1*
Y1418391D1*
X2917770Y1425576D1*
X2915394Y1427953D1*
X2910641Y1430329D1*
X2903456D1*
X2898647Y1427953D1*
X2896271Y1425576D1*
X2893894Y1418391D1*
X2891462Y1425576D1*
X2889086Y1427953D1*
X2884332Y1430329D1*
X2879524D1*
X2874771Y1427953D1*
X2872339Y1425576D1*
X2869962Y1418391D1*
Y1396836D1*
X2893894D2*
Y1418391D1*
X2881956Y1448200D2*
X2879579D1*
X2874771Y1450577D1*
X2872394Y1452954D1*
X2870018Y1457762D1*
Y1467324D1*
X2872394Y1472077D1*
X2874771Y1474454D1*
X2879579Y1476885D1*
X2884332D1*
X2889141Y1474453D1*
X2896271Y1469700D1*
X2920202Y1445769D1*
Y1479262D1*
X2996271Y1346715D2*
Y1368270D1*
X2993894Y1375400D1*
X2991462Y1377832D1*
X2986709Y1380209D1*
X2979524D1*
X2974771Y1377832D1*
X2972339Y1375400D1*
X2969962Y1368270D1*
Y1346715D1*
X3020202D1*
X2969962Y1395648D2*
X3020202D1*
Y1417203D1*
X3017770Y1424388D1*
X3015394Y1426764D1*
X3010641Y1429141D1*
X3003456D1*
X2998647Y1426764D1*
X2996271Y1424388D1*
X2993894Y1417203D1*
X2991462Y1424388D1*
X2989086Y1426764D1*
X2984332Y1429141D1*
X2979524D1*
X2974771Y1426765D1*
X2972339Y1424388D1*
X2969962Y1417203D1*
Y1395648D1*
X2993894D2*
Y1417203D1*
X3020202Y1468512D2*
X2970018D1*
X3003456Y1444580D1*
Y1480450D1*
X3096271Y1347904D2*
Y1369459D1*
X3093894Y1376588D1*
X3091462Y1379020D1*
X3086709Y1381397D1*
X3079524D1*
X3074771Y1379020D1*
X3072339Y1376588D1*
X3069962Y1369459D1*
Y1347904D1*
X3120202D1*
X3069962Y1396836D2*
X3120202D1*
Y1418391D1*
X3117770Y1425576D1*
X3115394Y1427953D1*
X3110641Y1430329D1*
X3103456D1*
X3098647Y1427953D1*
X3096271Y1425576D1*
X3093894Y1418391D1*
X3091462Y1425576D1*
X3089086Y1427953D1*
X3084332Y1430329D1*
X3079524D1*
X3074771Y1427953D1*
X3072339Y1425576D1*
X3069962Y1418391D1*
Y1396836D1*
X3093894D2*
Y1418391D1*
X3070018Y1450577D2*
Y1476830D1*
X3089141Y1462515D1*
Y1469700D1*
X3091517Y1474453D1*
X3093894Y1476830D1*
X3101079Y1479262D1*
X3105832D1*
X3113017Y1476830D1*
X3117826Y1472077D1*
X3120202Y1464892D1*
Y1457707D1*
X3117826Y1450577D1*
X3115394Y1448200D1*
X3110641Y1445769D1*
X2596271Y1584124D2*
Y1605679D1*
X2593894Y1612809D1*
X2591462Y1615241D1*
X2586709Y1617617D1*
X2579524D1*
X2574771Y1615241D1*
X2572339Y1612809D1*
X2569962Y1605679D1*
Y1584124D1*
X2620202D1*
X2569962Y1633057D2*
X2620202Y1633056D1*
Y1649803D1*
X2617770Y1656988D1*
X2613017Y1661797D1*
X2608209Y1664173D1*
X2601079Y1666550D1*
X2589086D1*
X2581901Y1664173D1*
X2577147Y1661797D1*
X2572339Y1656988D1*
X2569962Y1649803D1*
Y1633057D1*
X2570018Y1686798D2*
Y1713051D1*
X2589141Y1698736D1*
Y1705921D1*
X2591517Y1710674D1*
X2593894Y1713051D1*
X2601079Y1715482D1*
X2605832D1*
X2613017Y1713051D1*
X2617826Y1708297D1*
X2620202Y1701112D1*
Y1693927D1*
X2617826Y1686798D1*
X2615394Y1684421D1*
X2610641Y1681989D1*
X2696271Y1584124D2*
Y1605679D1*
X2693894Y1612809D1*
X2691462Y1615241D1*
X2686709Y1617617D1*
X2679524D1*
X2674771Y1615241D1*
X2672339Y1612809D1*
X2669962Y1605679D1*
Y1584124D1*
X2720202D1*
X2669962Y1633057D2*
X2720202Y1633056D1*
Y1649803D1*
X2717770Y1656988D1*
X2713017Y1661797D1*
X2708209Y1664173D1*
X2701079Y1666550D1*
X2689086D1*
X2681901Y1664173D1*
X2677147Y1661797D1*
X2672339Y1656988D1*
X2669962Y1649803D1*
Y1633057D1*
X2670018Y1710674D2*
Y1686798D1*
X2691517Y1684421D1*
X2689141Y1686798D1*
X2686709Y1693983D1*
Y1701112D1*
X2689141Y1708297D1*
X2693894Y1713106D1*
X2701079Y1715482D1*
X2705832D1*
X2713017Y1713106D1*
X2717826Y1708297D1*
X2720202Y1701112D1*
Y1693983D1*
X2717826Y1686798D1*
X2715394Y1684421D1*
X2710641Y1681989D1*
X2796271Y1585340D2*
Y1606895D1*
X2793894Y1614025D1*
X2791462Y1616457D1*
X2786709Y1618833D1*
X2779524D1*
X2774771Y1616457D1*
X2772339Y1614025D1*
X2769962Y1606895D1*
Y1585340D1*
X2820202D1*
X2769962Y1634272D2*
X2820202D1*
Y1651019D1*
X2817770Y1658204D1*
X2813017Y1663013D1*
X2808209Y1665389D1*
X2801079Y1667766D1*
X2789086D1*
X2781901Y1665389D1*
X2777147Y1663013D1*
X2772339Y1658204D1*
X2769962Y1651019D1*
Y1634272D1*
X2777147Y1711890D2*
X2772394Y1709513D1*
X2770018Y1702328D1*
Y1697575D1*
X2772394Y1690390D1*
X2779579Y1685582D1*
X2791517Y1683205D1*
X2803456D1*
X2813017Y1685582D1*
X2817826Y1690390D1*
X2820202Y1697575D1*
Y1699952D1*
X2817826Y1707081D1*
X2813017Y1711890D1*
X2805832Y1714266D1*
X2803456D1*
X2796271Y1711890D1*
X2791517Y1707081D1*
X2789141Y1699952D1*
Y1697575D1*
X2791517Y1690390D1*
X2796271Y1685582D1*
X2803456Y1683205D1*
X2896271Y1594874D2*
Y1616429D1*
X2893894Y1623559D1*
X2891462Y1625991D1*
X2886709Y1628367D1*
X2879524D1*
X2874771Y1625991D1*
X2872339Y1623559D1*
X2869962Y1616429D1*
Y1594874D1*
X2920202D1*
X2869962Y1643806D2*
X2920202D1*
Y1665362D1*
X2917770Y1672547D1*
X2915394Y1674923D1*
X2910641Y1677300D1*
X2903456D1*
X2898647Y1674923D1*
X2896271Y1672547D1*
X2893894Y1665362D1*
X2891462Y1672547D1*
X2889086Y1674923D1*
X2884332Y1677300D1*
X2879524D1*
X2874771Y1674923D1*
X2872339Y1672547D1*
X2869962Y1665362D1*
Y1643806D1*
X2893894D2*
Y1665362D1*
X2879579Y1692739D2*
X2877147Y1697547D1*
X2870018Y1704733D1*
X2920202Y1704732D1*
X2996271Y1582936D2*
Y1604491D1*
X2993894Y1611621D1*
X2991462Y1614052D1*
X2986709Y1616429D1*
X2979524D1*
X2974771Y1614052D1*
X2972339Y1611621D1*
X2969962Y1604491D1*
Y1582936D1*
X3020202D1*
X2969962Y1631868D2*
X3020202D1*
Y1648615D1*
X3017770Y1655800D1*
X3013017Y1660608D1*
X3008209Y1662985D1*
X3001079Y1665362D1*
X2989086D1*
X2981901Y1662985D1*
X2977147Y1660608D1*
X2972339Y1655800D1*
X2969962Y1648615D1*
Y1631868D1*
X3020202Y1704732D2*
X2970018Y1704733D1*
X3003456Y1680801D1*
Y1716671D1*
X3096271Y1585340D2*
Y1606895D1*
X3093894Y1614025D1*
X3091462Y1616457D1*
X3086709Y1618833D1*
X3079524D1*
X3074771Y1616457D1*
X3072339Y1614025D1*
X3069962Y1606895D1*
Y1585340D1*
X3120202D1*
X3069962Y1665334D2*
Y1634272D1*
X3120202D1*
Y1665334D1*
X3093894Y1634272D2*
Y1653396D1*
X3070018Y1695143D2*
X3072394Y1687958D1*
X3079579Y1683150D1*
X3091517Y1680773D1*
X3098703D1*
X3110641Y1683150D1*
X3117826Y1687958D1*
X3120202Y1695143D1*
Y1699896D1*
X3117826Y1707081D1*
X3110641Y1711835D1*
X3098702Y1714266D1*
X3091517D1*
X3079579Y1711835D1*
X3072394Y1707081D1*
X3070018Y1699896D1*
Y1695143D1*
X3079579Y1711835D2*
X3110641Y1683150D1*
X2476817Y2297408D2*
X2498373D1*
X2505502Y2299784D1*
X2507934Y2302216D1*
X2510311Y2306970D1*
Y2314155D1*
X2507934Y2318908D1*
X2505502Y2321340D1*
X2498373Y2323716D1*
X2476817D1*
Y2273476D1*
X2561620Y2311778D2*
X2559243Y2316531D1*
X2554435Y2321340D1*
X2549682Y2323716D1*
X2540120D1*
X2535312Y2321340D1*
X2530559Y2316531D1*
X2528127Y2311778D1*
X2525750Y2304593D1*
Y2292599D1*
X2528127Y2285470D1*
X2530559Y2280661D1*
X2535312Y2275908D1*
X2540120Y2273476D1*
X2549682D1*
X2554435Y2275908D1*
X2559243Y2280661D1*
X2561620Y2285470D1*
X2581868Y2323661D2*
X2608121D1*
X2593806Y2304538D1*
X2600991D1*
X2605744Y2302161D1*
X2608121Y2299784D1*
X2610553Y2292599D1*
Y2287846D1*
X2608121Y2280661D1*
X2603368Y2275853D1*
X2596183Y2273476D1*
X2588997D1*
X2581868Y2275853D1*
X2579491Y2278285D1*
X2577059Y2283038D1*
X2487567Y2197408D2*
X2509123D1*
X2516252Y2199784D1*
X2518684Y2202216D1*
X2521061Y2206970D1*
Y2214155D1*
X2518684Y2218908D1*
X2516252Y2221340D1*
X2509123Y2223716D1*
X2487567D1*
Y2173476D1*
X2572370Y2211778D2*
X2569993Y2216531D1*
X2565185Y2221340D1*
X2560432Y2223716D1*
X2550870D1*
X2546062Y2221340D1*
X2541308Y2216531D1*
X2538877Y2211778D1*
X2536500Y2204593D1*
Y2192599D1*
X2538877Y2185470D1*
X2541308Y2180661D1*
X2546062Y2175908D1*
X2550870Y2173476D1*
X2560432D1*
X2565185Y2175908D1*
X2569993Y2180661D1*
X2572370Y2185470D1*
X2587809Y2214099D2*
X2592618Y2216531D1*
X2599803Y2223661D1*
Y2173476D1*
X2476817Y2097408D2*
X2498373D1*
X2505502Y2099784D1*
X2507934Y2102216D1*
X2510311Y2106970D1*
Y2114155D1*
X2507934Y2118908D1*
X2505502Y2121340D1*
X2498373Y2123716D1*
X2476817D1*
Y2073476D1*
X2561620Y2111778D2*
X2559243Y2116531D1*
X2554435Y2121340D1*
X2549682Y2123716D1*
X2540120D1*
X2535312Y2121340D1*
X2530559Y2116531D1*
X2528127Y2111778D1*
X2525750Y2104593D1*
Y2092599D1*
X2528127Y2085470D1*
X2530559Y2080661D1*
X2535312Y2075908D1*
X2540120Y2073476D1*
X2549682D1*
X2554435Y2075908D1*
X2559243Y2080661D1*
X2561620Y2085470D1*
X2591429Y2123661D2*
X2584244Y2121284D1*
X2579436Y2114099D1*
X2577059Y2102161D1*
Y2094976D1*
X2579436Y2083038D1*
X2584244Y2075853D1*
X2591429Y2073476D1*
X2596183D1*
X2603368Y2075853D1*
X2608121Y2083038D1*
X2610553Y2094976D1*
Y2102161D1*
X2608121Y2114099D1*
X2603368Y2121284D1*
X2596183Y2123661D1*
X2591429D1*
X2608121Y2114099D2*
X2579436Y2083038D1*
X2479222Y1997408D2*
X2500777D1*
X2507907Y1999784D1*
X2510338Y2002216D1*
X2512715Y2006970D1*
Y2014155D1*
X2510338Y2018908D1*
X2507907Y2021340D1*
X2500777Y2023716D1*
X2479222D1*
Y1973476D1*
X2559216Y2023716D2*
X2528154D1*
Y1973476D1*
X2559216D1*
X2528154Y1999784D2*
X2547278D1*
X2579463Y2023661D2*
X2605717D1*
X2591402Y2004538D1*
X2598587D1*
X2603340Y2002161D1*
X2605717Y1999784D1*
X2608148Y1992599D1*
Y1987846D1*
X2605717Y1980661D1*
X2600963Y1975853D1*
X2593778Y1973476D1*
X2586593D1*
X2579463Y1975853D1*
X2577087Y1978285D1*
X2574655Y1983038D1*
X2479222Y1897408D2*
X2500777D1*
X2507907Y1899784D1*
X2510338Y1902216D1*
X2512715Y1906970D1*
Y1914155D1*
X2510338Y1918908D1*
X2507907Y1921340D1*
X2500777Y1923716D1*
X2479222D1*
Y1873476D1*
X2559216Y1923716D2*
X2528154D1*
Y1873476D1*
X2559216D1*
X2528154Y1899784D2*
X2547278D1*
X2577087Y1911723D2*
Y1914099D1*
X2579463Y1918908D1*
X2581840Y1921284D1*
X2586649Y1923661D1*
X2596210D1*
X2600963Y1921284D1*
X2603340Y1918908D1*
X2605772Y1914099D1*
Y1909346D1*
X2603340Y1904538D1*
X2598587Y1897408D1*
X2574655Y1873476D1*
X2608148D1*
X2478006Y1797408D2*
X2499561D1*
X2506691Y1799784D1*
X2509123Y1802216D1*
X2511499Y1806970D1*
Y1814155D1*
X2509123Y1818908D1*
X2506691Y1821340D1*
X2499561Y1823716D1*
X2478006D1*
Y1773476D1*
X2526938Y1823716D2*
Y1773476D1*
X2548493D1*
X2555679Y1775908D1*
X2558055Y1778285D1*
X2560432Y1783038D1*
Y1790223D1*
X2558055Y1795031D1*
X2555679Y1797408D1*
X2548493Y1799784D1*
X2555679Y1802216D1*
X2558055Y1804593D1*
X2560432Y1809346D1*
Y1814155D1*
X2558055Y1818908D1*
X2555679Y1821340D1*
X2548493Y1823716D1*
X2526938D1*
Y1799784D2*
X2548493D1*
X2604556Y1823661D2*
X2580679D1*
X2578303Y1802161D1*
X2580679Y1804538D1*
X2587864Y1806970D1*
X2594994D1*
X2602179Y1804538D1*
X2606988Y1799784D1*
X2609364Y1792599D1*
Y1787846D1*
X2606988Y1780661D1*
X2602179Y1775853D1*
X2594994Y1773476D1*
X2587864D1*
X2580679Y1775853D1*
X2578303Y1778285D1*
X2575871Y1783038D1*
X2714226Y2297408D2*
X2735781D1*
X2742911Y2299784D1*
X2745343Y2302216D1*
X2747720Y2306970D1*
Y2314155D1*
X2745343Y2318908D1*
X2742911Y2321340D1*
X2735781Y2323716D1*
X2714226D1*
Y2273476D1*
X2763159Y2323716D2*
Y2273476D1*
X2779906D1*
X2787091Y2275908D1*
X2791899Y2280661D1*
X2794276Y2285470D1*
X2796652Y2292599D1*
Y2304593D1*
X2794276Y2311778D1*
X2791899Y2316531D1*
X2787091Y2321340D1*
X2779906Y2323716D1*
X2763159D1*
X2814523Y2311723D2*
Y2314099D1*
X2816900Y2318908D1*
X2819276Y2321284D1*
X2824085Y2323661D1*
X2833647D1*
X2838400Y2321284D1*
X2840776Y2318908D1*
X2843208Y2314099D1*
Y2309346D1*
X2840776Y2304538D1*
X2836023Y2297408D1*
X2812091Y2273476D1*
X2845585D1*
X2714226Y2197408D2*
X2735781D1*
X2742911Y2199784D1*
X2745343Y2202216D1*
X2747720Y2206970D1*
Y2214155D1*
X2745343Y2218908D1*
X2742911Y2221340D1*
X2735781Y2223716D1*
X2714226D1*
Y2173476D1*
X2763159Y2223716D2*
Y2173476D1*
X2779906D1*
X2787091Y2175908D1*
X2791899Y2180661D1*
X2794276Y2185470D1*
X2796652Y2192599D1*
Y2204593D1*
X2794276Y2211778D1*
X2791899Y2216531D1*
X2787091Y2221340D1*
X2779906Y2223716D1*
X2763159D1*
X2826462Y2223661D2*
X2819276Y2221284D1*
X2814468Y2214099D1*
X2812091Y2202161D1*
Y2194976D1*
X2814468Y2183038D1*
X2819276Y2175853D1*
X2826462Y2173476D1*
X2831215D1*
X2838400Y2175853D1*
X2843153Y2183038D1*
X2845585Y2194976D1*
Y2202161D1*
X2843153Y2214099D1*
X2838400Y2221284D1*
X2831215Y2223661D1*
X2826462D1*
X2843153Y2214099D2*
X2814468Y2183038D1*
X2724976Y2097408D2*
X2746531D1*
X2753661Y2099784D1*
X2756093Y2102216D1*
X2758470Y2106970D1*
Y2114155D1*
X2756093Y2118908D1*
X2753661Y2121340D1*
X2746531Y2123716D1*
X2724976D1*
Y2073476D1*
X2773909Y2123716D2*
Y2073476D1*
X2790655D1*
X2797840Y2075908D1*
X2802649Y2080661D1*
X2805026Y2085470D1*
X2807402Y2092599D1*
Y2104593D1*
X2805026Y2111778D1*
X2802649Y2116531D1*
X2797840Y2121340D1*
X2790655Y2123716D1*
X2773909D1*
X2822841Y2114099D2*
X2827650Y2116531D1*
X2834835Y2123661D1*
Y2073476D1*
X2713038Y1997408D2*
X2734593D1*
X2741723Y1999784D1*
X2744155Y2002216D1*
X2746531Y2006970D1*
Y2014155D1*
X2744155Y2018908D1*
X2741723Y2021340D1*
X2734593Y2023716D1*
X2713038D1*
Y1973476D1*
X2797840Y2011778D2*
X2795464Y2016531D1*
X2790655Y2021340D1*
X2785902Y2023716D1*
X2776341D1*
X2771532Y2021340D1*
X2766779Y2016531D1*
X2764347Y2011778D1*
X2761971Y2004593D1*
Y1992599D1*
X2764347Y1985470D1*
X2766779Y1980661D1*
X2771532Y1975908D1*
X2776341Y1973476D1*
X2785902D1*
X2790655Y1975908D1*
X2795464Y1980661D1*
X2797840Y1985470D1*
X2841965Y2023661D2*
X2818088D1*
X2815712Y2002161D1*
X2818088Y2004538D1*
X2825273Y2006970D1*
X2832403D1*
X2839588Y2004538D1*
X2844396Y1999784D1*
X2846773Y1992599D1*
Y1987846D1*
X2844396Y1980661D1*
X2839588Y1975853D1*
X2832403Y1973476D1*
X2825273D1*
X2818088Y1975853D1*
X2815712Y1978285D1*
X2813280Y1983038D1*
X2711850Y1897408D2*
X2733405D1*
X2740535Y1899784D1*
X2742966Y1902216D1*
X2745343Y1906970D1*
Y1914155D1*
X2742966Y1918908D1*
X2740535Y1921340D1*
X2733405Y1923716D1*
X2711850D1*
Y1873476D1*
X2796652Y1911778D2*
X2794276Y1916531D1*
X2789467Y1921340D1*
X2784714Y1923716D1*
X2775152D1*
X2770344Y1921340D1*
X2765591Y1916531D1*
X2763159Y1911778D1*
X2760782Y1904593D1*
Y1892599D1*
X2763159Y1885470D1*
X2765591Y1880661D1*
X2770344Y1875908D1*
X2775152Y1873476D1*
X2784714D1*
X2789467Y1875908D1*
X2794276Y1880661D1*
X2796652Y1885470D1*
X2836023Y1873476D2*
Y1923661D1*
X2812091Y1890223D1*
X2847961D1*
X2713038Y1797408D2*
X2734593D1*
X2741723Y1799784D1*
X2744155Y1802216D1*
X2746531Y1806970D1*
Y1814155D1*
X2744155Y1818908D1*
X2741723Y1821340D1*
X2734593Y1823716D1*
X2713038D1*
Y1773476D1*
X2797840Y1811778D2*
X2795464Y1816531D1*
X2790655Y1821340D1*
X2785902Y1823716D1*
X2776341D1*
X2771532Y1821340D1*
X2766779Y1816531D1*
X2764347Y1811778D1*
X2761971Y1804593D1*
Y1792599D1*
X2764347Y1785470D1*
X2766779Y1780661D1*
X2771532Y1775908D1*
X2776341Y1773476D1*
X2785902D1*
X2790655Y1775908D1*
X2795464Y1780661D1*
X2797840Y1785470D1*
X2815712Y1811723D2*
Y1814099D1*
X2818088Y1818908D1*
X2820465Y1821284D1*
X2825273Y1823661D1*
X2834835D1*
X2839588Y1821284D1*
X2841965Y1818908D1*
X2844396Y1814099D1*
Y1809346D1*
X2841965Y1804538D1*
X2837211Y1797408D1*
X2813280Y1773476D1*
X2846773D1*
X1572063Y1487772D2*
D65*
X1575910Y1489718D1*
X1581658Y1495422D1*
Y1455274D1*
X1616957Y1489718D2*
X1615056Y1493520D1*
X1609308Y1495422D1*
X1605505D1*
X1599757Y1493520D1*
X1595910Y1487772D1*
X1594009Y1478222D1*
Y1468671D1*
X1595910Y1461022D1*
X1599757Y1457175D1*
X1605505Y1455274D1*
X1607406D1*
X1613110Y1457175D1*
X1616957Y1461022D1*
X1618858Y1466770D1*
Y1468671D1*
X1616957Y1474419D1*
X1613110Y1478222D1*
X1607406Y1480123D1*
X1605505D1*
X1599757Y1478222D1*
X1595910Y1474419D1*
X1594009Y1468671D1*
X1661807Y1455274D2*
Y1495466D1*
X1646508Y1455274D1*
X1631210Y1495466D1*
Y1455274D1*
X1674158Y1495466D2*
Y1455274D1*
X1700953Y1495466D2*
Y1455274D1*
X1674158Y1476320D2*
X1700953D1*
X1713304Y1482069D2*
X1734351D1*
X1713304Y1455274D1*
X1734351D1*
X1785583Y1495466D2*
X1812378Y1455274D1*
Y1495466D2*
X1785583Y1455274D1*
X1838127Y1495466D2*
Y1455274D1*
X1824729Y1495466D2*
X1851524D1*
X1894517Y1455274D2*
X1879174Y1495466D1*
X1863875Y1455274D1*
X1869623Y1468671D2*
X1888769D1*
X1906868Y1495466D2*
Y1455274D1*
X1929816D1*
X2255871Y2660109D2*
X2273071D1*
X2278819Y2662055D1*
X2280765Y2663956D1*
X2282666Y2667759D1*
Y2671605D1*
X2280765Y2675408D1*
X2278819Y2677353D1*
X2273071Y2679255D1*
X2255871D1*
Y2639063D1*
X2269269Y2660109D2*
X2282666Y2639063D1*
X2319867Y2679255D2*
X2295017D1*
Y2639063D1*
X2319867D1*
X2295017Y2660109D2*
X2310316D1*
X2359013Y2673507D2*
X2355210Y2677353D1*
X2349462Y2679255D1*
X2341813D1*
X2336065Y2677353D1*
X2332218Y2673507D1*
Y2669704D1*
X2334163Y2665857D1*
X2336065Y2663956D1*
X2339867Y2662055D1*
X2351363Y2658208D1*
X2355210Y2656307D1*
X2357111Y2654361D1*
X2359013Y2650559D1*
Y2644811D1*
X2355210Y2641008D1*
X2349462Y2639063D1*
X2341813D1*
X2336065Y2641008D1*
X2332218Y2644811D1*
X2396213Y2679255D2*
X2371364D1*
Y2639063D1*
X2396213D1*
X2371364Y2660109D2*
X2386663D1*
X2421962Y2679255D2*
Y2639063D1*
X2408565Y2679255D2*
X2435359D1*
X1129757Y1468376D2*
D66*
Y1416710D1*
X1103957Y1442510D2*
X1155623D1*
X1116172Y2350875D2*
Y2299209D1*
X1090372Y2325009D2*
X1142038D1*
X844810Y1887437D2*
X877972D1*
X1585501Y2300471D2*
D65*
X1560608D1*
Y2260279D1*
Y2281326D2*
X1575906D1*
X1597852Y2300471D2*
Y2260279D1*
X1610204Y2300471D2*
Y2260279D1*
X1633152D1*
X1658900Y2300471D2*
Y2260279D1*
X1645503Y2300471D2*
X1672298D1*
X1709498D2*
X1684649D1*
Y2260279D1*
X1709498D1*
X1684649Y2281326D2*
X1699948D1*
X1721850D2*
X1739050D1*
X1744798Y2283271D1*
X1746743Y2285172D1*
X1748644Y2288975D1*
Y2292822D1*
X1746743Y2296624D1*
X1744798Y2298570D1*
X1739050Y2300471D1*
X1721850D1*
Y2260279D1*
X1735247Y2281326D2*
X1748644Y2260279D1*
X1828572Y2290921D2*
X1826671Y2294723D1*
X1822824Y2298570D1*
X1819022Y2300471D1*
X1811373D1*
X1807526Y2298570D1*
X1803723Y2294723D1*
X1801778Y2290921D1*
X1799877Y2285172D1*
Y2275578D1*
X1801778Y2269874D1*
X1803723Y2266027D1*
X1807526Y2262225D1*
X1811373Y2260279D1*
X1819022D1*
X1822824Y2262225D1*
X1826671Y2266027D1*
X1828572Y2269874D1*
X1871565Y2260279D2*
X1856222Y2300471D1*
X1840924Y2260279D1*
X1846672Y2273676D2*
X1865817D1*
X1883917Y2279424D2*
X1901161D1*
X1906865Y2281326D1*
X1908810Y2283271D1*
X1910711Y2287074D1*
Y2292822D1*
X1908810Y2296624D1*
X1906865Y2298570D1*
X1901161Y2300471D1*
X1883917D1*
Y2260279D1*
X1949857Y2294723D2*
X1946055Y2298570D1*
X1940307Y2300471D1*
X1932658D1*
X1926910Y2298570D1*
X1923063Y2294723D1*
Y2290921D1*
X1925008Y2287074D1*
X1926910Y2285172D1*
X1930712Y2283271D1*
X1942208Y2279424D1*
X1946055Y2277523D1*
X1947956Y2275578D1*
X1949857Y2271775D1*
Y2266027D1*
X1946055Y2262225D1*
X1940307Y2260279D1*
X1932658D1*
X1926910Y2262225D1*
X1923063Y2266027D1*
X1875598Y1018877D2*
Y978685D1*
X1898546D1*
X1935747Y1018877D2*
X1910898D1*
Y978685D1*
X1935747D1*
X1910898Y999731D2*
X1926196D1*
X1948098Y1018877D2*
Y978685D1*
X1961496D1*
X1967244Y980630D1*
X1971090Y984433D1*
X1972992Y988279D1*
X1974893Y993983D1*
Y1003578D1*
X1972992Y1009326D1*
X1971090Y1013129D1*
X1967244Y1016975D1*
X1961496Y1018877D1*
X1948098D1*
X2026125Y999731D2*
X2043325D1*
X2049073Y1001677D1*
X2051018Y1003578D1*
X2052920Y1007381D1*
Y1011227D1*
X2051018Y1015030D1*
X2049073Y1016975D1*
X2043325Y1018877D1*
X2026125D1*
Y978685D1*
X2039522Y999731D2*
X2052920Y978685D1*
X2090120Y1018877D2*
X2065271D1*
Y978685D1*
X2090120D1*
X2065271Y999731D2*
X2080570D1*
X2129266Y1013129D2*
X2125464Y1016975D1*
X2119716Y1018877D1*
X2112067D1*
X2106318Y1016975D1*
X2102472Y1013129D1*
Y1009326D1*
X2104417Y1005479D1*
X2106318Y1003578D1*
X2110121Y1001677D1*
X2121617Y997830D1*
X2125464Y995929D1*
X2127365Y993983D1*
X2129266Y990181D1*
Y984433D1*
X2125464Y980630D1*
X2119716Y978685D1*
X2112067D1*
X2106318Y980630D1*
X2102472Y984433D1*
X2141618Y1018877D2*
Y978685D1*
X2180764Y1013129D2*
X2176961Y1016975D1*
X2171213Y1018877D1*
X2163564D1*
X2157816Y1016975D1*
X2153969Y1013129D1*
Y1009326D1*
X2155915Y1005479D1*
X2157816Y1003578D1*
X2161618Y1001677D1*
X2173115Y997830D1*
X2176961Y995929D1*
X2178863Y993983D1*
X2180764Y990181D1*
Y984433D1*
X2176961Y980630D1*
X2171213Y978685D1*
X2163564D1*
X2157816Y980630D1*
X2153969Y984433D1*
X2206513Y1018877D2*
Y978685D1*
X2193115Y1018877D2*
X2219910D1*
X2243757D2*
X2239911Y1016975D1*
X2236108Y1013129D1*
X2234163Y1009326D1*
X2232261Y1003578D1*
Y993983D1*
X2234163Y988279D1*
X2236108Y984433D1*
X2239911Y980630D1*
X2243757Y978685D1*
X2251407D1*
X2255209Y980630D1*
X2259056Y984433D1*
X2260957Y988279D1*
X2262859Y993983D1*
Y1003578D1*
X2260957Y1009326D1*
X2259056Y1013129D1*
X2255209Y1016975D1*
X2251407Y1018877D1*
X2243757D1*
X2275210Y999731D2*
X2292410D1*
X2298158Y1001677D1*
X2300103Y1003578D1*
X2302005Y1007381D1*
Y1011227D1*
X2300103Y1015030D1*
X2298158Y1016975D1*
X2292410Y1018877D1*
X2275210D1*
Y978685D1*
X2288607Y999731D2*
X2302005Y978685D1*
X2341151Y1013129D2*
X2337348Y1016975D1*
X2331600Y1018877D1*
X2323951D1*
X2318203Y1016975D1*
X2314356Y1013129D1*
Y1009326D1*
X2316301Y1005479D1*
X2318203Y1003578D1*
X2322005Y1001677D1*
X2333501Y997830D1*
X2337348Y995929D1*
X2339249Y993983D1*
X2341151Y990181D1*
Y984433D1*
X2337348Y980630D1*
X2331600Y978685D1*
X2323951D1*
X2318203Y980630D1*
X2314356Y984433D1*
M02*
