%TF.GenerationSoftware,Novarm,DipTrace,3.0.0.2*%
%TF.CreationDate,2016-12-19T10:06:00+01:00*%
%FSLAX26Y26*%
%MOIN*%
%TF.FileFunction,Plated,1,2,PTH,Drill*%
%TF.Part,Single*%
%TA.AperFunction,ViaDrill*%
%ADD42C,0.011811*%
G75*
G01*
D42*
X2297073Y1592756D3*
X2258119Y1844545D3*
X2096417Y2509085D3*
X2432122Y2644870D3*
X2032951Y2322559D3*
X1887092Y2103823D3*
X1948777Y2024783D3*
X1966172Y1975609D3*
X1633177Y1889024D3*
X1793554Y813228D3*
X1635593D3*
X1949798D3*
X1776856Y2155421D3*
X1978343D3*
X2170623Y2141600D3*
X2480736Y2027161D3*
X2206865Y1837832D3*
X1709824Y1892184D3*
Y644001D3*
X2020079Y515878D3*
X1151429Y1458286D3*
X1147692Y2315941D3*
X2231113Y1772769D3*
X2646516Y901669D3*
X1709824D3*
X2156738Y2089606D3*
X2891592Y2071118D3*
X1950417Y1384920D3*
X2370364Y1416071D3*
X2650757Y1432819D3*
X2052640Y2014336D3*
X2849163Y2095214D3*
X2834555Y2292614D3*
X1997812Y2077741D3*
X2114988Y2038583D3*
X2844612Y1994247D3*
X2123139Y2078382D3*
X2844612Y1898084D3*
X2267030Y2090896D3*
X2481811Y2294068D3*
X2028196Y2068059D3*
X2843831Y2195462D3*
X2348482Y2114419D3*
X2481097Y2195755D3*
X2372850Y2093933D3*
X2481762D3*
X2393516Y2069025D3*
X2511787Y2008445D3*
X2449062Y1990945D3*
X2522854Y1902980D3*
X2574503Y1796115D3*
X3192367D3*
X2107898Y1361080D3*
X2395546Y1387331D3*
X2747822Y1408328D3*
X2439799Y1642192D3*
X2544732D3*
X2416066Y1459453D3*
X1380585Y1196198D3*
X3136504Y1536471D3*
X2944697Y1356975D3*
X2452173Y1364175D3*
X2254270Y1974322D3*
X2917484Y1824680D3*
X2507080Y1709718D3*
X3167858D3*
X1792937Y1336461D3*
X2507080Y1389297D3*
X2899306Y1383714D3*
X2120079Y518144D3*
X2259356Y568790D3*
X3151971Y1682047D3*
X2532315Y1681172D3*
X2849047D3*
X2265378Y1340089D3*
X2702997D3*
X2483266D3*
X2206844Y1971438D3*
X2592681Y1740664D3*
X2439799Y1608793D3*
X2595504D3*
X2061575Y2060652D3*
X2254816Y2334029D3*
X1880303Y1951450D3*
M02*
