%TF.GenerationSoftware,Novarm,DipTrace,3.0.0.2*%
%TF.CreationDate,2016-12-19T10:05:57+01:00*%
%FSLAX26Y26*%
%MOIN*%
%TF.FileFunction,Copper,L2,Bot*%
%TF.Part,Single*%
%TA.AperFunction,Conductor*%
%ADD13C,0.007874*%
%ADD14C,0.019685*%
%ADD15C,0.015748*%
%TA.AperFunction,CopperBalancing*%
%ADD16C,0.025*%
%TA.AperFunction,ViaPad*%
%ADD41C,0.023622*%
G75*
G01*
%LPD*%
X2297073Y1592756D2*
D13*
X2258119Y1631710D1*
Y1844545D1*
X2096417Y2509085D2*
X2070751D1*
X2296337D1*
X2432122Y2644870D1*
X2032951Y2322559D2*
X2070751Y2360358D1*
Y2509085D1*
X1887092Y2103823D2*
X1948777D1*
X1995655D1*
X2039762Y2147930D1*
Y2322559D1*
X2032951D1*
X1948777Y2103823D2*
Y2024783D1*
X1966172Y1975609D2*
X1929755D1*
X1880580Y2024783D1*
X1948777D1*
X1633177Y1889024D2*
D14*
X1763001Y2018848D1*
X1948777D1*
D13*
Y2024783D1*
X1793554Y813228D2*
X1635593D1*
X1793554D2*
X1949798D1*
X1776856Y2155421D2*
D14*
X1978343D1*
X2480736Y2027161D2*
D15*
X2467707Y2040190D1*
X2272033D1*
D14*
X2170623Y2141600D1*
X2206865Y1837832D2*
X2152514Y1892184D1*
X1709824D1*
Y644001D2*
X1891955D1*
X2020079Y515878D1*
X1151429Y1458286D2*
G02X1147692Y2315941I172626J429588D01*
G01*
X2231113Y1772769D2*
D13*
Y1813585D1*
X2206865Y1837832D1*
X2646516Y901669D2*
X1709824D1*
X2156738Y2089606D2*
Y2110734D1*
X2145197Y2122274D1*
Y2160497D1*
X2306785Y2322085D1*
X2584039D1*
X2835007Y2071118D1*
X2891592D1*
X1950417Y1384920D2*
X2199988D1*
X2231139Y1416071D1*
X2370364D1*
Y1414844D1*
X2388339Y1432819D1*
X2650757D1*
X2052640Y2014336D2*
X2096101Y2057797D1*
Y2088248D1*
X2122470Y2114615D1*
Y2166491D1*
X2296720Y2340741D1*
X2603635D1*
X2849163Y2095214D1*
X2834555Y2292614D2*
X2835486D1*
X2750268Y2377832D1*
X2235312D1*
X2062325Y2204845D1*
Y2142255D1*
X1997812Y2077741D1*
X2114988Y2038583D2*
X2114050D1*
X2154583Y1998050D1*
X2387079D1*
X2506269Y1878860D1*
X2729224D1*
X2844612Y1994247D1*
X2123139Y2078382D2*
X2184106Y2017415D1*
X2456988D1*
X2491377Y1983026D1*
X2739184D1*
X2775731Y2019573D1*
X2854887D1*
X2869974Y2004487D1*
Y1923446D1*
X2844612Y1898084D1*
X2267030Y2090896D2*
Y2187000D1*
X2374098Y2294068D1*
X2481811D1*
X2028196Y2068059D2*
X2079403Y2119266D1*
Y2194270D1*
X2245327Y2360194D1*
X2679098D1*
X2843831Y2195462D1*
X2348482Y2114419D2*
Y2117000D1*
X2427236Y2195755D1*
X2481097D1*
X2372850Y2093933D2*
X2481762D1*
X2393516Y2069025D2*
X2473097D1*
X2511787Y2030335D1*
Y2008445D1*
X2449062Y1990945D2*
Y1976773D1*
X2522854Y1902980D1*
X2574503Y1796115D2*
X3192367D1*
X2107898Y1361080D2*
X2213041D1*
X2239291Y1387331D1*
X2395546D1*
X2424819Y1416602D1*
X2619915D1*
X2628189Y1408328D1*
X2747822D1*
X2439799Y1642192D2*
X2544732D1*
X2416066Y1459453D2*
X2380234D1*
X2362033Y1441252D1*
X2220845D1*
X2188209Y1408615D1*
X1773984D1*
X1561567Y1196198D1*
X1380585D1*
X2416066Y1459453D2*
Y1458252D1*
X2494285Y1536471D1*
X3136504D1*
X2452173Y1364175D2*
Y1367453D1*
X2494551D1*
X2505839Y1356165D1*
X2680657D1*
X2689463Y1364971D1*
X2717715D1*
X2725710Y1356975D1*
X2944697D1*
X2254270Y1974322D2*
X2384161D1*
X2533803Y1824680D1*
X2917484D1*
X2507080Y1709718D2*
X3167858D1*
X1792937Y1336461D2*
X2223895D1*
X2253794Y1366360D1*
X2336396D1*
X2344042Y1358714D1*
X2404844D1*
X2435427Y1389297D1*
X2507080D1*
X2899306Y1383714D2*
X2507080D1*
Y1389297D1*
X2120079Y518144D2*
X2227369D1*
X2259356Y568790D1*
X3151971Y1682047D2*
X2989108D1*
X2849047Y1681172D1*
X2532315D1*
X2265378Y1340089D2*
X2483266D1*
X2702997D1*
X2206844Y1971438D2*
X2227627Y1950656D1*
X2382689D1*
X2592681Y1740664D1*
X2439799Y1608793D2*
X2595504D1*
X2061575Y2060652D2*
X2064060Y2063138D1*
Y2080236D1*
X2099828Y2116004D1*
Y2179041D1*
X2254816Y2334029D1*
X1880303Y1951450D2*
X1976354D1*
X1990723Y1965819D1*
Y1989801D1*
X2061575Y2060652D1*
D41*
X2297073Y1592756D3*
X2258119Y1844545D3*
X2096417Y2509085D3*
X2432122Y2644870D3*
X2032951Y2322559D3*
X1887092Y2103823D3*
X2032951Y2322559D3*
X1948777Y2024783D3*
X1966172Y1975609D3*
X1633177Y1889024D3*
X1793554Y813228D3*
X1635593D3*
X1949798D3*
X1793554D3*
X1776856Y2155421D3*
X1978343D3*
X2170623Y2141600D3*
X2480736Y2027161D3*
X2206865Y1837832D3*
X1709824Y1892184D3*
Y644001D3*
X2020079Y515878D3*
X1709824Y1892184D3*
X1151429Y1458286D3*
X1147692Y2315941D3*
X2231113Y1772769D3*
X2206865Y1837832D3*
X2646516Y901669D3*
X1709824D3*
X2156738Y2089606D3*
X2891592Y2071118D3*
X1950417Y1384920D3*
X2370364Y1416071D3*
X2650757Y1432819D3*
X2052640Y2014336D3*
X2849163Y2095214D3*
X2834555Y2292614D3*
X1997812Y2077741D3*
X2114988Y2038583D3*
X2844612Y1994247D3*
X2123139Y2078382D3*
X2844612Y1898084D3*
X2267030Y2090896D3*
X2481811Y2294068D3*
X2028196Y2068059D3*
X2843831Y2195462D3*
X2348482Y2114419D3*
X2481097Y2195755D3*
X2372850Y2093933D3*
X2481762D3*
X2393516Y2069025D3*
X2511787Y2008445D3*
X2449062Y1990945D3*
X2522854Y1902980D3*
X2574503Y1796115D3*
X3192367D3*
X2107898Y1361080D3*
X2395546Y1387331D3*
X2747822Y1408328D3*
X2439799Y1642192D3*
X2544732D3*
X2416066Y1459453D3*
X1380585Y1196198D3*
X3136504Y1536471D3*
X2416066Y1459453D3*
X2944697Y1356975D3*
X2452173Y1364175D3*
X2254270Y1974322D3*
X2917484Y1824680D3*
X2507080Y1709718D3*
X3167858D3*
X1792937Y1336461D3*
X2507080Y1389297D3*
X2899306Y1383714D3*
X2120079Y518144D3*
X2259356Y568790D3*
X3151971Y1682047D3*
X2532315Y1681172D3*
X2849047D3*
X2265378Y1340089D3*
X2702997D3*
X2483266D3*
X2206844Y1971438D3*
X2592681Y1740664D3*
X2439799Y1608793D3*
X2595504D3*
X2061575Y2060652D3*
X2254816Y2334029D3*
X1880303Y1951450D3*
X2061575Y2060652D3*
X1418293Y3227811D2*
D16*
X1474768D1*
X2266145D2*
X2321887D1*
X1353498Y3202942D2*
X1471545D1*
X2269416D2*
X2386682D1*
X1289045Y3178073D2*
X1477844D1*
X2263117D2*
X2451135D1*
X1240217Y3153205D2*
X1487903D1*
X2253059D2*
X2499914D1*
X1191389Y3128336D2*
X1512268D1*
X2228694D2*
X2548742D1*
X1145588Y3103467D2*
X2594592D1*
X1107307Y3078598D2*
X2632873D1*
X1068977Y3053730D2*
X2671155D1*
X1030696Y3028861D2*
X2709485D1*
X999983Y3003992D2*
X2740198D1*
X969270Y2979123D2*
X2770910D1*
X938557Y2954255D2*
X2801574D1*
X909065Y2929386D2*
X2831115D1*
X884162Y2904517D2*
X2855969D1*
X859309Y2879648D2*
X2880823D1*
X834455Y2854780D2*
X2905725D1*
X809602Y2829911D2*
X2930578D1*
X789192Y2805042D2*
X2950989D1*
X769026Y2780173D2*
X2971106D1*
X748908Y2755304D2*
X2991272D1*
X728742Y2730436D2*
X3011389D1*
X709651Y2705567D2*
X3030530D1*
X693489Y2680698D2*
X3046643D1*
X677326Y2655829D2*
X3062805D1*
X661213Y2630961D2*
X3078967D1*
X645051Y2606092D2*
X3095129D1*
X629573Y2581223D2*
X3110559D1*
X616926Y2556354D2*
X3123254D1*
X604231Y2531486D2*
X3135901D1*
X591584Y2506617D2*
X3148596D1*
X578889Y2481748D2*
X3161242D1*
X566242Y2456879D2*
X3173938D1*
X556184Y2432010D2*
X3183996D1*
X546614Y2407142D2*
X3193567D1*
X537092Y2382273D2*
X2201770D1*
X2783821D2*
X3203088D1*
X527522Y2357404D2*
X2176916D1*
X2808674D2*
X3212658D1*
X518000Y2332535D2*
X1107043D1*
X1178694D2*
X2152063D1*
X2649836D2*
X2668762D1*
X2744709D2*
X2757555D1*
X2833528D2*
X3222180D1*
X509016Y2307667D2*
X1061389D1*
X1182112D2*
X2127160D1*
X2674690D2*
X2693664D1*
X2769612D2*
X2782461D1*
X2866389D2*
X3231164D1*
X502326Y2282798D2*
X1025207D1*
X1152278D2*
X2102307D1*
X2305451D2*
X2324865D1*
X2515315D2*
X2585364D1*
X2699543D2*
X2718518D1*
X2868537D2*
X3237805D1*
X495686Y2257929D2*
X994690D1*
X1103938D2*
X2077453D1*
X2280598D2*
X2299963D1*
X2375959D2*
X2610217D1*
X2724446D2*
X2743371D1*
X2819319D2*
X3244494D1*
X489045Y2233060D2*
X968420D1*
X1067268D2*
X2052551D1*
X2255744D2*
X2275110D1*
X2351057D2*
X2635071D1*
X2749299D2*
X2768274D1*
X2844221D2*
X3251135D1*
X482356Y2208192D2*
X945520D1*
X1037190D2*
X2034973D1*
X2230891D2*
X2250256D1*
X2326203D2*
X2401721D1*
X2514143D2*
X2659973D1*
X2774153D2*
X2793127D1*
X2876740D2*
X3257776D1*
X475715Y2183323D2*
X925940D1*
X1011897D2*
X1756799D1*
X1998420D2*
X2034729D1*
X2205989D2*
X2239465D1*
X2301350D2*
X2376819D1*
X2514143D2*
X2684826D1*
X2799006D2*
X2810657D1*
X2876985D2*
X3264465D1*
X470051Y2158454D2*
X908703D1*
X990266D2*
X1741516D1*
X2013655D2*
X2034729D1*
X2201448D2*
X2239465D1*
X2294612D2*
X2351965D1*
X2427912D2*
X2709680D1*
X2823908D2*
X3270080D1*
X466145Y2133585D2*
X893420D1*
X971614D2*
X1749670D1*
X2005549D2*
X2015676D1*
X2224983D2*
X2239465D1*
X2294612D2*
X2319153D1*
X2403059D2*
X2734582D1*
X2848762D2*
X3274035D1*
X462190Y2108717D2*
X879797D1*
X955500D2*
X1983996D1*
X2297248D2*
X2313489D1*
X2513752D2*
X2759436D1*
X2881721D2*
X3277990D1*
X458235Y2083848D2*
X868371D1*
X941633D2*
X1962903D1*
X2301740D2*
X2333606D1*
X2515657D2*
X2784289D1*
X2924494D2*
X3281897D1*
X454328Y2058979D2*
X858557D1*
X930158D2*
X1968176D1*
X2180500D2*
X2206897D1*
X2521125D2*
X2809192D1*
X2924739D2*
X3285852D1*
X450373Y2034110D2*
X849914D1*
X920442D2*
X1997033D1*
X2539094D2*
X2752307D1*
X2878303D2*
X3289807D1*
X447541Y2009241D2*
X842981D1*
X912287D2*
X1972180D1*
X2087727D2*
X2097419D1*
X2547248D2*
X2727405D1*
X2897102D2*
X3292590D1*
X446223Y1984373D2*
X837463D1*
X905647D2*
X1963147D1*
X2023274D2*
X2036389D1*
X2068879D2*
X2130285D1*
X2778498D2*
X2796747D1*
X2897541D2*
X3293908D1*
X444953Y1959504D2*
X832922D1*
X900764D2*
X1845813D1*
X2017512D2*
X2173596D1*
X2750422D2*
X2771887D1*
X2897541D2*
X3295227D1*
X443635Y1934635D2*
X830090D1*
X897444D2*
X1849426D1*
X1997492D2*
X2205676D1*
X2534602D2*
X2747033D1*
X2822981D2*
X2842395D1*
X2897541D2*
X3296496D1*
X442317Y1909766D2*
X828430D1*
X895442D2*
X1679455D1*
X2181282D2*
X2385608D1*
X2557600D2*
X2722131D1*
X2798127D2*
X2811291D1*
X2893489D2*
X3297815D1*
X441047Y1884898D2*
X827600D1*
X894660D2*
X1675158D1*
X2206135D2*
X2410461D1*
X2773225D2*
X2811877D1*
X2877326D2*
X3299133D1*
X440803Y1860029D2*
X828674D1*
X895735D2*
X1700012D1*
X1719617D2*
X2138342D1*
X2233723D2*
X2435364D1*
X2748274D2*
X3299377D1*
X442073Y1835160D2*
X830725D1*
X898176D2*
X2163196D1*
X2247492D2*
X2460217D1*
X2951252D2*
X3298059D1*
X443391Y1810291D2*
X833801D1*
X901887D2*
X2186242D1*
X2258674D2*
X2485071D1*
X3224641D2*
X3296789D1*
X444709Y1785423D2*
X838684D1*
X906965D2*
X2198157D1*
X2264045D2*
X2509924D1*
X3226057D2*
X3295471D1*
X445979Y1760554D2*
X844543D1*
X914045D2*
X2198010D1*
X2264240D2*
X2534826D1*
X2621467D2*
X3294153D1*
X447297Y1735685D2*
X851721D1*
X922639D2*
X2484240D1*
X2529914D2*
X2557580D1*
X2627766D2*
X3145032D1*
X3190657D2*
X3292834D1*
X449592Y1710816D2*
X860803D1*
X932844D2*
X2471643D1*
X3203303D2*
X3290539D1*
X453547Y1685948D2*
X871057D1*
X944856D2*
X2481750D1*
X3193196D2*
X3286584D1*
X457502Y1661079D2*
X882727D1*
X959016D2*
X2410266D1*
X3179914D2*
X3282678D1*
X461457Y1636210D2*
X896838D1*
X975715D2*
X2404895D1*
X2616340D2*
X3278723D1*
X465364Y1611341D2*
X912707D1*
X995051D2*
X2404407D1*
X2630891D2*
X3274768D1*
X469319Y1586472D2*
X930530D1*
X1017512D2*
X2413049D1*
X2622297D2*
X3270862D1*
X474397Y1561604D2*
X950793D1*
X1043782D2*
X3112658D1*
X3160334D2*
X3265735D1*
X481086Y1536735D2*
X974182D1*
X1075032D2*
X2456555D1*
X3171955D2*
X3259094D1*
X487727Y1511866D2*
X1001379D1*
X1114533D2*
X2431701D1*
X3160969D2*
X3252405D1*
X494416Y1486997D2*
X1033069D1*
X1170149D2*
X2395422D1*
X2482795D2*
X3245764D1*
X501057Y1462129D2*
X1071301D1*
X1186653D2*
X2204455D1*
X2457942D2*
X2633166D1*
X2668342D2*
X3239074D1*
X507746Y1437260D2*
X1120080D1*
X1179328D2*
X2178869D1*
X2685920D2*
X2729504D1*
X2766145D2*
X3232434D1*
X516145Y1412391D2*
X1739807D1*
X2783039D2*
X2880530D1*
X2918098D2*
X3223987D1*
X525715Y1387522D2*
X1714905D1*
X2959602D2*
X3214465D1*
X535237Y1362654D2*
X1690051D1*
X1815461D2*
X1923596D1*
X2979670D2*
X3204895D1*
X544807Y1337785D2*
X1665198D1*
X1741145D2*
X1757465D1*
X2974006D2*
X3195373D1*
X554328Y1312916D2*
X1640295D1*
X1716242D2*
X1767346D1*
X2235041D2*
X2244181D1*
X2286555D2*
X2462073D1*
X2504426D2*
X2681799D1*
X2724153D2*
X3185803D1*
X563899Y1288047D2*
X1615442D1*
X1691389D2*
X3176282D1*
X576496Y1263178D2*
X1590588D1*
X1666535D2*
X3163684D1*
X589143Y1238310D2*
X1565686D1*
X1641633D2*
X3150989D1*
X601838Y1213441D2*
X1349963D1*
X1616780D2*
X3138342D1*
X614485Y1188572D2*
X1346008D1*
X1591926D2*
X3125647D1*
X627180Y1163703D2*
X1372473D1*
X1388670D2*
X3113000D1*
X641926Y1138835D2*
X3098205D1*
X658088Y1113966D2*
X3082043D1*
X674250Y1089097D2*
X3065930D1*
X690412Y1064228D2*
X3049768D1*
X706526Y1039360D2*
X3033606D1*
X724885Y1014491D2*
X3015246D1*
X745051Y989622D2*
X2995129D1*
X765168Y964753D2*
X2975012D1*
X785285Y939885D2*
X2954846D1*
X805451Y915016D2*
X1677160D1*
X2679182D2*
X2934729D1*
X829670Y890147D2*
X1676428D1*
X2679914D2*
X2910461D1*
X854524Y865278D2*
X2885608D1*
X879426Y840409D2*
X2860754D1*
X904280Y815541D2*
X2835852D1*
X932698Y790672D2*
X2807483D1*
X963362Y765803D2*
X2776770D1*
X994074Y740934D2*
X2746057D1*
X1024787Y716066D2*
X2715344D1*
X1061653Y691197D2*
X2678528D1*
X1099934Y666328D2*
X1683069D1*
X1915949D2*
X2640198D1*
X1138215Y641459D2*
X1674426D1*
X1940803D2*
X2601916D1*
X1182063Y616591D2*
X1688977D1*
X1965705D2*
X2558117D1*
X1230842Y591722D2*
X1897912D1*
X1990559D2*
X2233166D1*
X2285530D2*
X2509289D1*
X1279670Y566853D2*
X1922766D1*
X2015412D2*
X2223938D1*
X2294758D2*
X2460510D1*
X1341047Y541984D2*
X1947668D1*
X2042707D2*
X2094787D1*
X2281037D2*
X2399084D1*
X1405842Y517115D2*
X1972522D1*
X2055549D2*
X2084631D1*
X2258869D2*
X2334289D1*
X1488215Y492247D2*
X1994592D1*
X2045588D2*
X2097180D1*
X2143000D2*
X2251916D1*
X1585383Y467378D2*
X2154797D1*
X1781916Y442509D2*
X1958264D1*
X1478325Y3231734D2*
X1482422Y3247023D1*
X1427343Y3232264D1*
X1287381Y3178524D1*
X1153803Y3110447D1*
X1028073Y3028781D1*
X911569Y2934419D1*
X805565Y2828398D1*
X711231Y2711883D1*
X629582Y2586131D1*
X561530Y2452541D1*
X507814Y2312570D1*
X469024Y2167750D1*
X445583Y2019669D1*
X437752Y1869949D1*
X445612Y1720230D1*
X469079Y1572153D1*
X507895Y1427341D1*
X561636Y1287380D1*
X629713Y1153802D1*
X711378Y1028072D1*
X805740Y911567D1*
X911761Y805565D1*
X1028284Y711225D1*
X1154029Y629581D1*
X1287618Y561528D1*
X1427590Y507814D1*
X1572409Y469024D1*
X1720490Y445583D1*
X1870200Y437751D1*
X2019928Y445610D1*
X2168004Y469078D1*
X2312817Y507894D1*
X2452778Y561635D1*
X2586356Y629711D1*
X2712086Y711377D1*
X2828590Y805738D1*
X2934593Y911760D1*
X3028933Y1028282D1*
X3110577Y1154027D1*
X3178629Y1287617D1*
X3232344Y1427588D1*
X3271134Y1572408D1*
X3294574Y1720489D1*
X3302407Y1870208D1*
X3294549Y2019926D1*
X3271081Y2168002D1*
X3232268Y2312806D1*
X3178525Y2452777D1*
X3110449Y2586354D1*
X3028782Y2712084D1*
X2934421Y2828589D1*
X2828399Y2934593D1*
X2711877Y3028932D1*
X2586132Y3110576D1*
X2452543Y3178628D1*
X2312571Y3232344D1*
X2258567Y3246800D1*
X2266592Y3216405D1*
X2267289Y3209773D1*
X2266940Y3203113D1*
X2265855Y3197660D1*
X2256953Y3164945D1*
X2254241Y3158853D1*
X2250609Y3153260D1*
X2246942Y3149080D1*
X2222876Y3125200D1*
X2217481Y3121280D1*
X2211538Y3118253D1*
X2206276Y3116467D1*
X2173493Y3107818D1*
X2165748Y3107106D1*
X1571864Y3107236D1*
X1564198Y3108553D1*
X1531484Y3117455D1*
X1525391Y3120167D1*
X1519798Y3123800D1*
X1515619Y3127464D1*
X1491737Y3151530D1*
X1487817Y3156925D1*
X1484789Y3162867D1*
X1483002Y3168132D1*
X1474353Y3200915D1*
X1473656Y3207547D1*
X1474005Y3214207D1*
X1475090Y3219660D1*
X1478325Y3231734D1*
X1788037Y2186425D2*
X1967139D1*
X1973184Y2187988D1*
X1980930Y2188292D1*
X1988532Y2186780D1*
X1995571Y2183535D1*
X2001658Y2178736D1*
X2006456Y2172649D1*
X2009701Y2165610D1*
X2011213Y2158008D1*
X2010909Y2150263D1*
X2008805Y2142803D1*
X2005018Y2136041D1*
X1999756Y2130349D1*
X1993312Y2126043D1*
X1986040Y2123360D1*
X1978343Y2122449D1*
X1970645Y2123360D1*
X1967157Y2124430D1*
X1788059Y2124417D1*
X1782014Y2122855D1*
X1774269Y2122550D1*
X1766667Y2124063D1*
X1759628Y2127308D1*
X1753541Y2132106D1*
X1748742Y2138193D1*
X1745497Y2145232D1*
X1743985Y2152834D1*
X1744289Y2160579D1*
X1746393Y2168039D1*
X1750180Y2174802D1*
X1755442Y2180494D1*
X1761886Y2184800D1*
X1769158Y2187483D1*
X1776856Y2188394D1*
X1784553Y2187483D1*
X1788041Y2186412D1*
X2291906Y2069226D2*
X2350988D1*
X2346175Y2074552D1*
X2342388Y2081315D1*
X2342111Y2082065D1*
X2335864Y2083956D1*
X2329101Y2087743D1*
X2323409Y2093005D1*
X2319103Y2099449D1*
X2316420Y2106721D1*
X2315509Y2114419D1*
X2316420Y2122116D1*
X2319103Y2129388D1*
X2323409Y2135833D1*
X2329101Y2141094D1*
X2335864Y2144881D1*
X2342917Y2146904D1*
X2410936Y2214840D1*
X2415842Y2218117D1*
X2421377Y2220160D1*
X2427567Y2220840D1*
X2459707Y2220853D1*
X2466128Y2225133D1*
X2473400Y2227816D1*
X2481097Y2228727D1*
X2488794Y2227816D1*
X2496066Y2225133D1*
X2502511Y2220827D1*
X2507772Y2215135D1*
X2511560Y2208373D1*
X2513664Y2200913D1*
X2513968Y2193168D1*
X2512456Y2185566D1*
X2509211Y2178527D1*
X2504412Y2172440D1*
X2498325Y2167641D1*
X2491286Y2164396D1*
X2483684Y2162884D1*
X2475939Y2163188D1*
X2468479Y2165292D1*
X2461716Y2169079D1*
X2459707Y2170663D1*
X2437591Y2170656D1*
X2389430Y2122454D1*
X2394240Y2119024D1*
X2460399Y2119032D1*
X2466793Y2123312D1*
X2474065Y2125994D1*
X2481762Y2126906D1*
X2489460Y2125994D1*
X2496732Y2123312D1*
X2503176Y2119006D1*
X2508438Y2113314D1*
X2512225Y2106551D1*
X2514329Y2099091D1*
X2514633Y2091346D1*
X2513121Y2083744D1*
X2509876Y2076705D1*
X2505991Y2071606D1*
X2532092Y2045087D1*
X2534975Y2039939D1*
X2536577Y2034261D1*
X2536886Y2029798D1*
X2539901Y2025673D1*
X2543146Y2018634D1*
X2544658Y2011032D1*
X2544747Y2008111D1*
X2728828Y2008125D1*
X2759431Y2038659D1*
X2764336Y2041936D1*
X2769872Y2043979D1*
X2776062Y2044659D1*
X2856856Y2044595D1*
X2862643Y2043444D1*
X2868001Y2040973D1*
X2872859Y2037078D1*
X2890279Y2019239D1*
X2893162Y2014092D1*
X2894763Y2008413D1*
X2895072Y2004487D1*
X2894763Y1919520D1*
X2893162Y1913841D1*
X2890279Y1908694D1*
X2887721Y1905699D1*
X2877467Y1895444D1*
X2875970Y1887895D1*
X2872725Y1880856D1*
X2867927Y1874769D1*
X2861840Y1869970D1*
X2854801Y1866725D1*
X2847199Y1865213D1*
X2839454Y1865517D1*
X2831994Y1867621D1*
X2825231Y1871409D1*
X2819539Y1876670D1*
X2815233Y1883115D1*
X2812550Y1890387D1*
X2811639Y1898084D1*
X2812550Y1905781D1*
X2815233Y1913053D1*
X2819539Y1919498D1*
X2825231Y1924759D1*
X2831994Y1928547D1*
X2839454Y1930650D1*
X2841994Y1930951D1*
X2844872Y1933839D1*
X2844681Y1958822D1*
X2743977Y1858555D1*
X2738829Y1855672D1*
X2733151Y1854070D1*
X2729224Y1853761D1*
X2540211D1*
X2544197Y1849781D1*
X2896059Y1849778D1*
X2902515Y1854058D1*
X2909787Y1856741D1*
X2917484Y1857652D1*
X2925182Y1856741D1*
X2932453Y1854058D1*
X2938898Y1849752D1*
X2944160Y1844061D1*
X2947947Y1837298D1*
X2950051Y1829838D1*
X2950355Y1822093D1*
X2950249Y1821199D1*
X3170938Y1821214D1*
X3177398Y1825494D1*
X3184670Y1828177D1*
X3192367Y1829088D1*
X3200065Y1828177D1*
X3207337Y1825494D1*
X3213781Y1821188D1*
X3219043Y1815496D1*
X3222830Y1808733D1*
X3224934Y1801274D1*
X3225238Y1793528D1*
X3223726Y1785926D1*
X3220481Y1778887D1*
X3215682Y1772800D1*
X3209596Y1768002D1*
X3202556Y1764757D1*
X3194954Y1763245D1*
X3187209Y1763549D1*
X3179749Y1765653D1*
X3172987Y1769440D1*
X3170977Y1771024D1*
X2605600Y1771017D1*
X2612062Y1767339D1*
X2617754Y1762078D1*
X2622060Y1755633D1*
X2624743Y1748361D1*
X2625654Y1740664D1*
X2625108Y1734802D1*
X3146484Y1734816D1*
X3152889Y1739097D1*
X3160161Y1741779D1*
X3167858Y1742690D1*
X3175556Y1741779D1*
X3182827Y1739097D1*
X3189272Y1734790D1*
X3194534Y1729099D1*
X3198321Y1722336D1*
X3200425Y1714876D1*
X3200729Y1707131D1*
X3199217Y1699529D1*
X3195972Y1692490D1*
X3191173Y1686403D1*
X3185086Y1681604D1*
X3184033Y1674350D1*
X3181350Y1667078D1*
X3177044Y1660633D1*
X3171352Y1655372D1*
X3164589Y1651585D1*
X3157129Y1649481D1*
X3149384Y1649176D1*
X3141782Y1650689D1*
X3134743Y1653934D1*
X3130581Y1656956D1*
X2939265Y1656637D1*
X2870461Y1656099D1*
X2864016Y1651793D1*
X2856745Y1649111D1*
X2849047Y1648199D1*
X2841350Y1649111D1*
X2834078Y1651793D1*
X2827657Y1656081D1*
X2574682Y1656073D1*
X2576794Y1649889D1*
X2577705Y1642192D1*
X2577127Y1636171D1*
X2582886Y1639255D1*
X2590346Y1641359D1*
X2598091Y1641663D1*
X2605693Y1640151D1*
X2612732Y1636906D1*
X2618819Y1632108D1*
X2623618Y1626021D1*
X2626863Y1618982D1*
X2628375Y1611380D1*
X2628070Y1603635D1*
X2625967Y1596175D1*
X2622179Y1589412D1*
X2616918Y1583720D1*
X2610473Y1579414D1*
X2603201Y1576731D1*
X2595504Y1575820D1*
X2587807Y1576731D1*
X2580535Y1579414D1*
X2574114Y1583701D1*
X2461178Y1583694D1*
X2454768Y1579414D1*
X2447496Y1576731D1*
X2439799Y1575820D1*
X2432102Y1576731D1*
X2424830Y1579414D1*
X2418385Y1583720D1*
X2413124Y1589412D1*
X2409337Y1596175D1*
X2407233Y1603635D1*
X2406928Y1611380D1*
X2408441Y1618982D1*
X2411384Y1625482D1*
X2408441Y1632003D1*
X2406928Y1639605D1*
X2407233Y1647350D1*
X2409337Y1654810D1*
X2413124Y1661572D1*
X2418385Y1667264D1*
X2424830Y1671570D1*
X2432102Y1674253D1*
X2439799Y1675164D1*
X2447496Y1674253D1*
X2454768Y1671570D1*
X2461189Y1667283D1*
X2502446Y1667290D1*
X2500254Y1673475D1*
X2499383Y1677656D1*
X2492111Y1680339D1*
X2485666Y1684645D1*
X2480405Y1690337D1*
X2476617Y1697100D1*
X2474514Y1704560D1*
X2474209Y1712305D1*
X2475721Y1719907D1*
X2478966Y1726946D1*
X2483765Y1733033D1*
X2489852Y1737831D1*
X2496891Y1741077D1*
X2504493Y1742589D1*
X2512238Y1742284D1*
X2519698Y1740180D1*
X2526461Y1736393D1*
X2528470Y1734809D1*
X2560254Y1734816D1*
X2559814Y1738047D1*
X2372297Y1925554D1*
X2225658Y1925635D1*
X2219871Y1926786D1*
X2214513Y1929256D1*
X2209655Y1933152D1*
X2204183Y1938605D1*
X2199147Y1939377D1*
X2191875Y1942060D1*
X2185430Y1946366D1*
X2180169Y1952058D1*
X2176381Y1958820D1*
X2174277Y1966280D1*
X2173931Y1972964D1*
X2150656Y1973260D1*
X2144978Y1974862D1*
X2139830Y1977745D1*
X2136835Y1980302D1*
X2111320Y2005818D1*
X2104799Y2007224D1*
X2097760Y2010469D1*
X2091673Y2015268D1*
X2090417Y2016627D1*
X2085502Y2011703D1*
X2083999Y2004147D1*
X2080754Y1997108D1*
X2075955Y1991021D1*
X2069868Y1986222D1*
X2062829Y1982977D1*
X2055227Y1981465D1*
X2047482Y1981769D1*
X2040022Y1983873D1*
X2033260Y1987661D1*
X2028412Y1992009D1*
X2015827Y1979410D1*
X2015513Y1961893D1*
X2013911Y1956214D1*
X2011028Y1951066D1*
X2008470Y1948072D1*
X1991107Y1931145D1*
X1985959Y1928262D1*
X1980281Y1926661D1*
X1976354Y1926352D1*
X1901696D1*
X1897324Y1923188D1*
X2154947Y1923092D1*
X2162095Y1921670D1*
X2168714Y1918619D1*
X2174438Y1914107D1*
X2220876Y1867668D1*
X2226246Y1864507D1*
X2231937Y1859246D1*
X2236243Y1852801D1*
X2238926Y1845529D1*
X2239732Y1840449D1*
X2251418Y1828338D1*
X2254301Y1823191D1*
X2255902Y1817512D1*
X2256211Y1813585D1*
Y1794201D1*
X2260492Y1787738D1*
X2263174Y1780466D1*
X2264085Y1772769D1*
X2263174Y1765072D1*
X2260492Y1757800D1*
X2256185Y1751355D1*
X2250494Y1746094D1*
X2243731Y1742306D1*
X2236271Y1740203D1*
X2228526Y1739898D1*
X2220924Y1741410D1*
X2213885Y1744655D1*
X2207798Y1749454D1*
X2202999Y1755541D1*
X2199754Y1762580D1*
X2198242Y1770182D1*
X2198546Y1777927D1*
X2200650Y1785387D1*
X2204438Y1792150D1*
X2206022Y1794159D1*
X2206014Y1803189D1*
X2204216Y1804987D1*
X2199168Y1805771D1*
X2191896Y1808453D1*
X2185451Y1812760D1*
X2180190Y1818451D1*
X2177042Y1823827D1*
X2139677Y1861174D1*
X1721020Y1861180D1*
X1714982Y1859617D1*
X1707237Y1859313D1*
X1699635Y1860825D1*
X1692596Y1864070D1*
X1686509Y1868869D1*
X1681711Y1874956D1*
X1678465Y1881995D1*
X1676953Y1889597D1*
X1677258Y1897342D1*
X1679362Y1904802D1*
X1683149Y1911564D1*
X1688410Y1917256D1*
X1694855Y1921562D1*
X1702127Y1924245D1*
X1709824Y1925156D1*
X1717521Y1924245D1*
X1721009Y1923175D1*
X1863075Y1923337D1*
X1856988Y1928135D1*
X1852190Y1934222D1*
X1848944Y1941261D1*
X1847432Y1948863D1*
X1847737Y1956608D1*
X1849841Y1964068D1*
X1853628Y1970831D1*
X1858889Y1976523D1*
X1865334Y1980829D1*
X1872606Y1983512D1*
X1880303Y1984423D1*
X1888000Y1983512D1*
X1895272Y1980829D1*
X1901693Y1976541D1*
X1965606Y1976549D1*
X1965934Y1993727D1*
X1967535Y1999405D1*
X1970418Y2004553D1*
X1972976Y2007548D1*
X2007675Y2042247D1*
X2004270Y2045405D1*
X1997812Y2044769D1*
X1990115Y2045680D1*
X1982843Y2048363D1*
X1976398Y2052669D1*
X1971137Y2058361D1*
X1967350Y2065123D1*
X1965246Y2072583D1*
X1964942Y2080328D1*
X1966454Y2087931D1*
X1969699Y2094970D1*
X1974497Y2101057D1*
X1980584Y2105855D1*
X1987623Y2109100D1*
X1995195Y2110609D1*
X2037207Y2152631D1*
X2037304Y2206814D1*
X2038455Y2212601D1*
X2040925Y2217959D1*
X2044821Y2222817D1*
X2219012Y2396917D1*
X2223918Y2400195D1*
X2229453Y2402237D1*
X2235643Y2402918D1*
X2752237Y2402853D1*
X2758024Y2401702D1*
X2763382Y2399232D1*
X2768240Y2395336D1*
X2838208Y2325387D1*
X2844744Y2323973D1*
X2851783Y2320728D1*
X2857870Y2315929D1*
X2862669Y2309842D1*
X2865914Y2302803D1*
X2867426Y2295201D1*
X2867122Y2287456D1*
X2865018Y2279996D1*
X2861230Y2273233D1*
X2855969Y2267542D1*
X2849524Y2263236D1*
X2842252Y2260553D1*
X2834555Y2259642D1*
X2826858Y2260553D1*
X2819586Y2263236D1*
X2813141Y2267542D1*
X2807880Y2273233D1*
X2804093Y2279996D1*
X2801989Y2287456D1*
X2801647Y2290967D1*
X2739881Y2352725D1*
X2721996Y2352733D1*
X2846450Y2228337D1*
X2854020Y2226821D1*
X2861059Y2223576D1*
X2867146Y2218777D1*
X2871944Y2212690D1*
X2875189Y2205651D1*
X2876702Y2198049D1*
X2876397Y2190304D1*
X2874293Y2182844D1*
X2870506Y2176081D1*
X2865245Y2170390D1*
X2858800Y2166083D1*
X2851528Y2163401D1*
X2843831Y2162490D1*
X2836133Y2163401D1*
X2828862Y2166083D1*
X2822417Y2170390D1*
X2817155Y2176081D1*
X2813368Y2182844D1*
X2811264Y2190304D1*
X2810963Y2192845D1*
X2668676Y2335122D1*
X2644772Y2335096D1*
X2851779Y2128092D1*
X2859352Y2126573D1*
X2866391Y2123328D1*
X2872478Y2118529D1*
X2877276Y2112442D1*
X2880521Y2105403D1*
X2881403Y2102477D1*
X2889005Y2103989D1*
X2896750Y2103685D1*
X2904210Y2101581D1*
X2910973Y2097793D1*
X2916664Y2092532D1*
X2920971Y2086087D1*
X2923653Y2078815D1*
X2924564Y2071118D1*
X2923653Y2063421D1*
X2920971Y2056149D1*
X2916664Y2049704D1*
X2910973Y2044443D1*
X2904210Y2040656D1*
X2896750Y2038552D1*
X2889005Y2038247D1*
X2881403Y2039759D1*
X2874364Y2043004D1*
X2870202Y2046027D1*
X2831080Y2046329D1*
X2825402Y2047930D1*
X2820254Y2050813D1*
X2817259Y2053371D1*
X2573604Y2297026D1*
X2514655Y2296987D1*
X2514682Y2291481D1*
X2513170Y2283879D1*
X2509925Y2276840D1*
X2505126Y2270753D1*
X2499039Y2265955D1*
X2492000Y2262710D1*
X2484398Y2261197D1*
X2476653Y2261502D1*
X2469193Y2263606D1*
X2462430Y2267393D1*
X2460421Y2268977D1*
X2384497Y2268970D1*
X2292098Y2176573D1*
X2292129Y2112244D1*
X2295144Y2108124D1*
X2298389Y2101085D1*
X2299901Y2093483D1*
X2299597Y2085738D1*
X2297493Y2078278D1*
X2293705Y2071516D1*
X2291849Y2069208D1*
X2225906Y2042470D2*
X2188272Y2080104D1*
X2186116Y2074637D1*
X2181810Y2068192D1*
X2176118Y2062931D1*
X2174882Y2062105D1*
X2194508Y2042507D1*
X2225854Y2042513D1*
X2200453Y2155616D2*
X2241954Y2114115D1*
X2242009Y2188969D1*
X2243160Y2194756D1*
X2245630Y2200114D1*
X2249526Y2204972D1*
X2341504Y2296968D1*
X2317194Y2296987D1*
X2189084Y2168890D1*
X2193938Y2164915D1*
X2198737Y2158828D1*
X2200447Y2155605D1*
X1721006Y675005D2*
X1894388Y674910D1*
X1901536Y673488D1*
X1908155Y670437D1*
X1913878Y665924D1*
X1914104Y665680D1*
X2034066Y545737D1*
X2039459Y542553D1*
X2045151Y537292D1*
X2049457Y530847D1*
X2052140Y523575D1*
X2053051Y515878D1*
X2052140Y508181D1*
X2049457Y500909D1*
X2045151Y494464D1*
X2039459Y489203D1*
X2032697Y485415D1*
X2025237Y483311D1*
X2017492Y483007D1*
X2009890Y484519D1*
X2002851Y487764D1*
X1996764Y492563D1*
X1991965Y498650D1*
X1990256Y501873D1*
X1879073Y613037D1*
X1721008Y612997D1*
X1714982Y611435D1*
X1707237Y611131D1*
X1699635Y612643D1*
X1692596Y615888D1*
X1686509Y620686D1*
X1681711Y626773D1*
X1678465Y633812D1*
X1676953Y641414D1*
X1677258Y649159D1*
X1679362Y656619D1*
X1683149Y663382D1*
X1688410Y669074D1*
X1694855Y673380D1*
X1702127Y676063D1*
X1709824Y676974D1*
X1717521Y676063D1*
X1721009Y674992D1*
Y1861193D2*
X1714982Y1859617D1*
X1707237Y1859313D1*
X1699635Y1860825D1*
X1692596Y1864070D1*
X1686509Y1868869D1*
X1681711Y1874956D1*
X1678465Y1881995D1*
X1676953Y1889597D1*
X1677258Y1897342D1*
X1679362Y1904802D1*
X1683149Y1911564D1*
X1688410Y1917256D1*
X1694855Y1921562D1*
X1702127Y1924245D1*
X1709824Y1925156D1*
X1717521Y1924245D1*
X1721009Y1923175D1*
X1128540Y1434572D2*
X1103205Y1446040D1*
X1069044Y1464835D1*
X1036471Y1486267D1*
X1005691Y1510202D1*
X976894Y1536489D1*
X950260Y1564966D1*
X925956Y1595455D1*
X904131Y1627766D1*
X884924Y1661697D1*
X868452Y1697038D1*
X854820Y1733568D1*
X844111Y1771059D1*
X836392Y1809279D1*
X831712Y1847988D1*
X830100Y1886945D1*
X831566Y1925908D1*
X836100Y1964635D1*
X843675Y2002883D1*
X854243Y2040414D1*
X867738Y2076995D1*
X884076Y2112398D1*
X903156Y2146401D1*
X924859Y2178794D1*
X949048Y2209374D1*
X975575Y2237951D1*
X1004273Y2264346D1*
X1034963Y2288396D1*
X1067454Y2309950D1*
X1101545Y2328875D1*
X1124553Y2339435D1*
X1130464Y2344055D1*
X1137503Y2347300D1*
X1145105Y2348812D1*
X1152850Y2348507D1*
X1160310Y2346404D1*
X1167072Y2342616D1*
X1172764Y2337355D1*
X1177070Y2330910D1*
X1179753Y2323638D1*
X1180664Y2315941D1*
X1179753Y2308244D1*
X1177070Y2300972D1*
X1172764Y2294527D1*
X1167072Y2289266D1*
X1160310Y2285478D1*
X1152850Y2283374D1*
X1149264Y2282549D1*
X1128353Y2272952D1*
X1098590Y2256316D1*
X1070232Y2237385D1*
X1043455Y2216276D1*
X1018427Y2193120D1*
X995303Y2168063D1*
X974227Y2141260D1*
X955332Y2112878D1*
X938733Y2083094D1*
X924536Y2052094D1*
X912828Y2020071D1*
X903682Y1987223D1*
X897156Y1953757D1*
X893289Y1919881D1*
X892107Y1885804D1*
X893616Y1851741D1*
X897806Y1817903D1*
X904653Y1784501D1*
X914113Y1751743D1*
X926128Y1719833D1*
X940622Y1688970D1*
X957505Y1659347D1*
X976671Y1631147D1*
X998003Y1604547D1*
X1021366Y1579713D1*
X1046615Y1556799D1*
X1073593Y1535947D1*
X1102131Y1517288D1*
X1132052Y1500939D1*
X1154016Y1491157D1*
X1161618Y1489645D1*
X1168657Y1486400D1*
X1174744Y1481601D1*
X1179543Y1475514D1*
X1182788Y1468475D1*
X1184300Y1460873D1*
X1183996Y1453128D1*
X1181892Y1445668D1*
X1178104Y1438905D1*
X1172843Y1433214D1*
X1166398Y1428907D1*
X1159126Y1426225D1*
X1151429Y1425314D1*
X1143732Y1426225D1*
X1136460Y1428907D1*
X1130015Y1433214D1*
X1128523Y1434593D1*
X2625178Y876571D2*
X1731233D1*
X1724793Y872291D1*
X1717521Y869608D1*
X1709824Y868697D1*
X1702127Y869608D1*
X1694855Y872291D1*
X1688410Y876597D1*
X1683149Y882289D1*
X1679362Y889051D1*
X1677258Y896511D1*
X1676953Y904256D1*
X1678465Y911858D1*
X1681711Y918897D1*
X1686509Y924984D1*
X1692596Y929783D1*
X1699635Y933028D1*
X1707237Y934540D1*
X1714982Y934236D1*
X1722442Y932132D1*
X1729205Y928345D1*
X1731214Y926761D1*
X2625107Y926768D1*
X2631547Y931048D1*
X2638818Y933731D1*
X2646516Y934642D1*
X2654213Y933731D1*
X2661485Y931048D1*
X2667930Y926742D1*
X2673191Y921050D1*
X2676978Y914287D1*
X2679082Y906827D1*
X2679387Y899082D1*
X2677874Y891480D1*
X2674629Y884441D1*
X2669831Y878354D1*
X2663744Y873556D1*
X2656705Y870311D1*
X2649103Y868798D1*
X2641358Y869103D1*
X2633898Y871207D1*
X2627135Y874994D1*
X2625126Y876578D1*
X1927169Y1361543D2*
X1923742Y1365539D1*
X1919955Y1372302D1*
X1917851Y1379762D1*
X1917499Y1383536D1*
X1784351Y1383517D1*
X1577867Y1177113D1*
X1572961Y1173835D1*
X1567426Y1171793D1*
X1561236Y1171113D1*
X1401948Y1171100D1*
X1395554Y1166820D1*
X1388283Y1164137D1*
X1380585Y1163226D1*
X1372888Y1164137D1*
X1365616Y1166820D1*
X1359171Y1171126D1*
X1353910Y1176817D1*
X1350123Y1183580D1*
X1348019Y1191040D1*
X1347715Y1198785D1*
X1349227Y1206387D1*
X1352472Y1213426D1*
X1357270Y1219513D1*
X1363357Y1224312D1*
X1370396Y1227557D1*
X1377998Y1229069D1*
X1385743Y1228765D1*
X1393203Y1226661D1*
X1399966Y1222873D1*
X1401975Y1221289D1*
X1551142Y1221297D1*
X1757684Y1427700D1*
X1762590Y1430978D1*
X1768125Y1433020D1*
X1774315Y1433701D1*
X2177842Y1433714D1*
X2204545Y1460337D1*
X2209451Y1463615D1*
X2214986Y1465657D1*
X2221176Y1466337D1*
X2351656Y1466351D1*
X2365481Y1479758D1*
X2370629Y1482641D1*
X2376307Y1484242D1*
X2380234Y1484551D1*
X2394638D1*
X2401096Y1488831D1*
X2408368Y1491514D1*
X2414701Y1492372D1*
X2477985Y1555556D1*
X2482890Y1558834D1*
X2488426Y1560876D1*
X2494616Y1561557D1*
X3115134Y1561570D1*
X3121535Y1565850D1*
X3128807Y1568533D1*
X3136504Y1569444D1*
X3144201Y1568533D1*
X3151473Y1565850D1*
X3157918Y1561544D1*
X3163179Y1555852D1*
X3166967Y1549089D1*
X3169070Y1541629D1*
X3169375Y1533884D1*
X3167863Y1526282D1*
X3164618Y1519243D1*
X3159819Y1513156D1*
X3153732Y1508358D1*
X3146693Y1505112D1*
X3139091Y1503600D1*
X3131346Y1503905D1*
X3123886Y1506009D1*
X3117123Y1509796D1*
X3115114Y1511380D1*
X2504619Y1511373D1*
X2451231Y1457922D1*
X2629403Y1457917D1*
X2633529Y1460933D1*
X2640568Y1464178D1*
X2648170Y1465690D1*
X2655915Y1465385D1*
X2663375Y1463281D1*
X2670138Y1459494D1*
X2675830Y1454233D1*
X2680136Y1447788D1*
X2682819Y1440516D1*
X2683706Y1433415D1*
X2726480Y1433427D1*
X2730593Y1436442D1*
X2737632Y1439687D1*
X2745235Y1441199D1*
X2752980Y1440895D1*
X2760440Y1438791D1*
X2767202Y1435003D1*
X2772894Y1429742D1*
X2777200Y1423297D1*
X2779883Y1416025D1*
X2780775Y1408803D1*
X2877930Y1408812D1*
X2884337Y1413093D1*
X2891609Y1415775D1*
X2899306Y1416686D1*
X2907003Y1415775D1*
X2914275Y1413093D1*
X2920720Y1408786D1*
X2925981Y1403095D1*
X2929768Y1396332D1*
X2931872Y1388872D1*
X2932079Y1387438D1*
X2939539Y1389542D1*
X2947284Y1389846D1*
X2954886Y1388334D1*
X2961925Y1385089D1*
X2968012Y1380290D1*
X2972810Y1374203D1*
X2976056Y1367164D1*
X2977568Y1359562D1*
X2977263Y1351817D1*
X2975159Y1344357D1*
X2971372Y1337594D1*
X2966111Y1331903D1*
X2959666Y1327596D1*
X2952394Y1324914D1*
X2944697Y1324003D1*
X2937000Y1324914D1*
X2929728Y1327596D1*
X2923307Y1331884D1*
X2734882Y1331877D1*
X2732376Y1325120D1*
X2728070Y1318675D1*
X2722378Y1313414D1*
X2715615Y1309627D1*
X2708155Y1307523D1*
X2700410Y1307218D1*
X2692808Y1308731D1*
X2685769Y1311976D1*
X2681607Y1314998D1*
X2504609Y1314991D1*
X2500494Y1311976D1*
X2493455Y1308731D1*
X2485853Y1307218D1*
X2478108Y1307523D1*
X2470648Y1309627D1*
X2463886Y1313414D1*
X2461876Y1314998D1*
X2286733Y1314991D1*
X2282606Y1311976D1*
X2275567Y1308731D1*
X2267965Y1307218D1*
X2260220Y1307523D1*
X2252760Y1309627D1*
X2245997Y1313414D1*
X2240903Y1318029D1*
X2237009Y1315061D1*
X2231651Y1312590D1*
X2225864Y1311439D1*
X1814276Y1311362D1*
X1810165Y1308347D1*
X1803126Y1305102D1*
X1795524Y1303590D1*
X1787779Y1303894D1*
X1780319Y1305998D1*
X1773556Y1309785D1*
X1767865Y1315047D1*
X1763558Y1321491D1*
X1760876Y1328763D1*
X1759965Y1336461D1*
X1760876Y1344158D1*
X1763558Y1351430D1*
X1767865Y1357875D1*
X1773556Y1363136D1*
X1780319Y1366923D1*
X1787779Y1369027D1*
X1795524Y1369331D1*
X1803126Y1367819D1*
X1810165Y1364574D1*
X1814327Y1361552D1*
X1927166Y1361559D1*
X2555830Y1903958D2*
X2718810D1*
X2809360Y1994490D1*
X2786088Y1994475D1*
X2755484Y1963941D1*
X2750578Y1960663D1*
X2745043Y1958621D1*
X2738853Y1957941D1*
X2503393Y1957928D1*
X2525470Y1935859D1*
X2533043Y1934339D1*
X2540082Y1931094D1*
X2546169Y1926295D1*
X2550968Y1920208D1*
X2554213Y1913169D1*
X2555725Y1905567D1*
X2555789Y1903940D1*
X2141417Y543243D2*
X2213585D1*
X2226721Y564120D1*
X2226485Y571377D1*
X2227997Y578979D1*
X2231242Y586018D1*
X2236041Y592105D1*
X2242128Y596904D1*
X2249167Y600149D1*
X2256769Y601661D1*
X2264514Y601357D1*
X2271974Y599253D1*
X2278736Y595465D1*
X2284428Y590204D1*
X2288734Y583759D1*
X2291417Y576487D1*
X2292328Y568790D1*
X2291417Y561093D1*
X2288734Y553821D1*
X2284428Y547376D1*
X2278736Y542115D1*
X2271974Y538327D1*
X2269146Y537319D1*
X2247472Y503118D1*
X2243409Y498840D1*
X2238459Y495629D1*
X2232897Y493662D1*
X2226821Y493059D1*
X2141480Y493046D1*
X2135048Y488766D1*
X2127776Y486083D1*
X2120079Y485172D1*
X2112381Y486083D1*
X2105110Y488766D1*
X2098665Y493072D1*
X2093403Y498764D1*
X2089616Y505526D1*
X2087512Y512986D1*
X2087208Y520731D1*
X2088720Y528333D1*
X2091965Y535372D1*
X2096764Y541459D1*
X2102851Y546258D1*
X2109890Y549503D1*
X2117492Y551015D1*
X2125237Y550711D1*
X2132697Y548607D1*
X2139459Y544820D1*
X2141469Y543236D1*
M02*
