%TF.GenerationSoftware,Novarm,DipTrace,3.0.0.2*%
%TF.CreationDate,2016-12-19T10:05:57+01:00*%
%FSLAX26Y26*%
%MOIN*%
%TF.FileFunction,Legend,Top*%
%TF.Part,Single*%
%ADD10C,0.009843*%
%ADD12C,0.002992*%
%ADD18O,0.236176X0.236743*%
%ADD19C,0.23622*%
%ADD20C,0.19685*%
%ADD39C,0.016557*%
G75*
G01*
%LPD*%
X2102951Y1870304D2*
D10*
X2264400Y2031758D1*
X2425848Y1870304D1*
X2264400Y1708850D1*
X2102951Y1870304D1*
D39*
X2044415Y1855805D3*
G36*
X2102951Y1870304D2*
X2125208Y1848070D1*
Y1892583D1*
X2102951Y1870304D1*
G37*
D18*
X1240356Y1201538D3*
X1791085Y1201407D2*
D19*
X2581224D1*
X709177Y1869900D2*
D20*
G02X3030495Y1869900I1160659J776D01*
G01*
X1828239Y839541D2*
D12*
X1855168D1*
X1394381Y836549D2*
X1415325D1*
X1520050D2*
X1540995D1*
X1639735D2*
X1657688D1*
X1818469D2*
X1864824D1*
X1953908D2*
X1974853D1*
X2070601D2*
X2100522D1*
X2130444D2*
X2265089D1*
X2306979D2*
X2405719D1*
X1394381Y833556D2*
X1415325D1*
X1520050D2*
X1540995D1*
X1637891D2*
X1659531D1*
X1809888D2*
X1873022D1*
X1953908D2*
X1974853D1*
X2067609D2*
X2097530D1*
X2130444D2*
X2265089D1*
X2306979D2*
X2416396D1*
X1394381Y830564D2*
X1415325D1*
X1520050D2*
X1540995D1*
X1636278D2*
X1661144D1*
X1802583D2*
X1879609D1*
X1953908D2*
X1974853D1*
X2064617D2*
X2094538D1*
X2130444D2*
X2265089D1*
X2306979D2*
X2424978D1*
X1394381Y827572D2*
X1415325D1*
X1520050D2*
X1540995D1*
X1634964D2*
X1662459D1*
X1796418D2*
X1885007D1*
X1953908D2*
X1974853D1*
X2061625D2*
X2091546D1*
X2130444D2*
X2265089D1*
X2306979D2*
X2431456D1*
X1394381Y824580D2*
X1415325D1*
X1520050D2*
X1540995D1*
X1633854D2*
X1663569D1*
X1791361D2*
X1889531D1*
X1953908D2*
X1974853D1*
X2058633D2*
X2088554D1*
X2130444D2*
X2265089D1*
X2306979D2*
X2436192D1*
X1394381Y821588D2*
X1415325D1*
X1520050D2*
X1540995D1*
X1632676D2*
X1664747D1*
X1787245D2*
X1893264D1*
X1953908D2*
X1974853D1*
X2055640D2*
X2085562D1*
X2130444D2*
X2265089D1*
X2306979D2*
X2439554D1*
X1394381Y818596D2*
X1415325D1*
X1520050D2*
X1540995D1*
X1631371D2*
X1666052D1*
X1783723D2*
X1822854D1*
X1857446D2*
X1896278D1*
X1953908D2*
X1974853D1*
X2052648D2*
X2082570D1*
X2130444D2*
X2265089D1*
X2306979D2*
X2442178D1*
X1394381Y815604D2*
X1415325D1*
X1520050D2*
X1540995D1*
X1630057D2*
X1645257D1*
X1652166D2*
X1667365D1*
X1780505D2*
X1815237D1*
X1864680D2*
X1898715D1*
X1953908D2*
X1974853D1*
X2049656D2*
X2079577D1*
X2130444D2*
X2151388D1*
X2306979D2*
X2327924D1*
X2407535D2*
X2444466D1*
X1394381Y812612D2*
X1415325D1*
X1520050D2*
X1540995D1*
X1628884D2*
X1644503D1*
X1652919D2*
X1668539D1*
X1777435D2*
X1808749D1*
X1870451D2*
X1900903D1*
X1953908D2*
X1974853D1*
X2046664D2*
X2076585D1*
X2130444D2*
X2151388D1*
X2306979D2*
X2327924D1*
X2414027D2*
X2446430D1*
X1394381Y809619D2*
X1415325D1*
X1520050D2*
X1540995D1*
X1627833D2*
X1643623D1*
X1653799D2*
X1669589D1*
X1774515D2*
X1803494D1*
X1874939D2*
X1903006D1*
X1953908D2*
X1974853D1*
X2043672D2*
X2073593D1*
X2130444D2*
X2151388D1*
X2306979D2*
X2327924D1*
X2419012D2*
X2448060D1*
X1394381Y806627D2*
X1415325D1*
X1520050D2*
X1540995D1*
X1626678D2*
X1642718D1*
X1654705D2*
X1670744D1*
X1771904D2*
X1799281D1*
X1878618D2*
X1904909D1*
X1953908D2*
X1974853D1*
X2040680D2*
X2070601D1*
X2130444D2*
X2151388D1*
X2306979D2*
X2327924D1*
X2422871D2*
X2449285D1*
X1394381Y803635D2*
X1415325D1*
X1520050D2*
X1540995D1*
X1625382D2*
X1641712D1*
X1655711D2*
X1672041D1*
X1769730D2*
X1795717D1*
X1881800D2*
X1906617D1*
X1953908D2*
X1974853D1*
X2037688D2*
X2067609D1*
X2130444D2*
X2151388D1*
X2306979D2*
X2327924D1*
X2425890D2*
X2450107D1*
X1394381Y800643D2*
X1415325D1*
X1520050D2*
X1540995D1*
X1624071D2*
X1640712D1*
X1656710D2*
X1673351D1*
X1767897D2*
X1792494D1*
X1884514D2*
X1908214D1*
X1953908D2*
X1974853D1*
X2034696D2*
X2064617D1*
X2130444D2*
X2151388D1*
X2306979D2*
X2327924D1*
X2428216D2*
X2450843D1*
X1394381Y797651D2*
X1415325D1*
X1520050D2*
X1540995D1*
X1622899D2*
X1639756D1*
X1657666D2*
X1674524D1*
X1766248D2*
X1789512D1*
X1886715D2*
X1909758D1*
X1953908D2*
X1974853D1*
X2031703D2*
X2061613D1*
X2130444D2*
X2151388D1*
X2306979D2*
X2327924D1*
X2430006D2*
X2451716D1*
X1394381Y794659D2*
X1415325D1*
X1520050D2*
X1540995D1*
X1621849D2*
X1638730D1*
X1658692D2*
X1675574D1*
X1764693D2*
X1786878D1*
X1888469D2*
X1911350D1*
X1953908D2*
X1974853D1*
X2028711D2*
X2058516D1*
X2130444D2*
X2151388D1*
X2306979D2*
X2327924D1*
X2431283D2*
X2452546D1*
X1394381Y791667D2*
X1415325D1*
X1520050D2*
X1540995D1*
X1620694D2*
X1637724D1*
X1659699D2*
X1676728D1*
X1763183D2*
X1784707D1*
X1889843D2*
X1913101D1*
X1953908D2*
X1974853D1*
X2025719D2*
X2055142D1*
X2130444D2*
X2151388D1*
X2306979D2*
X2327924D1*
X2432024D2*
X2453092D1*
X1394381Y788675D2*
X1415325D1*
X1520050D2*
X1540995D1*
X1619398D2*
X1636754D1*
X1660669D2*
X1678025D1*
X1761775D2*
X1782964D1*
X1891043D2*
X1915010D1*
X1953908D2*
X1974853D1*
X2022715D2*
X2051433D1*
X2130444D2*
X2151388D1*
X2306979D2*
X2327924D1*
X2432388D2*
X2453378D1*
X1394381Y785682D2*
X1415325D1*
X1520050D2*
X1540995D1*
X1618087D2*
X1635634D1*
X1661789D2*
X1679335D1*
X1760561D2*
X1781602D1*
X1892446D2*
X1906221D1*
X1953908D2*
X1974853D1*
X2019618D2*
X2047674D1*
X2130444D2*
X2151388D1*
X2306979D2*
X2327924D1*
X2432535D2*
X2453496D1*
X1394381Y782690D2*
X1415325D1*
X1520050D2*
X1540995D1*
X1616915D2*
X1634351D1*
X1663072D2*
X1680508D1*
X1759507D2*
X1780487D1*
X1894066D2*
X1897058D1*
X1953908D2*
X1974853D1*
X2016245D2*
X2044160D1*
X2130444D2*
X2151388D1*
X2306979D2*
X2327924D1*
X2432494D2*
X2453444D1*
X1394381Y779698D2*
X1415325D1*
X1520050D2*
X1540995D1*
X1615865D2*
X1633045D1*
X1664377D2*
X1681558D1*
X1758452D2*
X1779409D1*
X1953908D2*
X1974853D1*
X2012536D2*
X2040891D1*
X2130444D2*
X2151388D1*
X2306979D2*
X2327924D1*
X2432125D2*
X2453084D1*
X1394381Y776706D2*
X1415325D1*
X1520050D2*
X1540995D1*
X1614710D2*
X1631874D1*
X1665548D2*
X1682713D1*
X1757535D2*
X1778472D1*
X1953908D2*
X1974853D1*
X2008777D2*
X2037772D1*
X2130444D2*
X2151388D1*
X2306979D2*
X2327924D1*
X2431300D2*
X2452363D1*
X1394381Y773714D2*
X1415325D1*
X1520050D2*
X1540995D1*
X1613413D2*
X1630837D1*
X1666586D2*
X1684009D1*
X1756952D2*
X1777781D1*
X1953908D2*
X1974853D1*
X2005263D2*
X2034727D1*
X2130444D2*
X2151388D1*
X2306979D2*
X2327924D1*
X2430038D2*
X2451493D1*
X1394381Y770722D2*
X1415325D1*
X1520050D2*
X1540995D1*
X1612103D2*
X1629776D1*
X1667647D2*
X1685320D1*
X1756640D2*
X1777098D1*
X1953908D2*
X1974853D1*
X2001993D2*
X2031715D1*
X2130444D2*
X2151388D1*
X2306979D2*
X2327924D1*
X2428291D2*
X2450579D1*
X1394381Y767730D2*
X1415325D1*
X1520050D2*
X1540995D1*
X1610930D2*
X1628755D1*
X1668667D2*
X1686492D1*
X1756399D2*
X1776246D1*
X1953908D2*
X1974853D1*
X1998874D2*
X2028715D1*
X2130444D2*
X2151388D1*
X2306979D2*
X2327924D1*
X2425903D2*
X2449468D1*
X1394381Y764738D2*
X1415325D1*
X1520050D2*
X1540995D1*
X1609880D2*
X1627780D1*
X1669642D2*
X1687542D1*
X1755962D2*
X1775424D1*
X1953908D2*
X1974853D1*
X1995829D2*
X2025720D1*
X2130444D2*
X2151388D1*
X2306979D2*
X2327924D1*
X2422657D2*
X2448076D1*
X1394381Y761745D2*
X1415325D1*
X1520050D2*
X1540995D1*
X1608726D2*
X1626658D1*
X1670764D2*
X1688697D1*
X1755225D2*
X1774881D1*
X1953908D2*
X1974853D1*
X1992817D2*
X2022727D1*
X2130444D2*
X2151388D1*
X2306979D2*
X2327924D1*
X2418111D2*
X2446287D1*
X1394381Y758753D2*
X1540995D1*
X1607429D2*
X1625374D1*
X1672048D2*
X1689994D1*
X1754450D2*
X1774595D1*
X1953908D2*
X1974865D1*
X1989806D2*
X2024696D1*
X2130444D2*
X2151388D1*
X2306979D2*
X2327924D1*
X2412000D2*
X2444007D1*
X1394381Y755761D2*
X1540995D1*
X1606119D2*
X1624069D1*
X1673354D2*
X1691304D1*
X1753925D2*
X1774466D1*
X1953908D2*
X1974979D1*
X1986697D2*
X2026786D1*
X2130444D2*
X2259105D1*
X2306979D2*
X2327924D1*
X2404638D2*
X2441358D1*
X1394381Y752769D2*
X1540995D1*
X1604946D2*
X1622898D1*
X1674525D2*
X1692477D1*
X1753647D2*
X1774412D1*
X1953908D2*
X1975441D1*
X1983242D2*
X2029106D1*
X2130444D2*
X2259105D1*
X2306979D2*
X2438393D1*
X1394381Y749777D2*
X1540995D1*
X1603896D2*
X1621860D1*
X1675562D2*
X1693527D1*
X1753520D2*
X1774392D1*
X1953908D2*
X1976464D1*
X1979226D2*
X2031424D1*
X2130444D2*
X2259105D1*
X2306979D2*
X2434837D1*
X1394381Y746785D2*
X1540995D1*
X1602741D2*
X1620799D1*
X1676623D2*
X1694681D1*
X1753467D2*
X1774384D1*
X1953908D2*
X2033567D1*
X2130444D2*
X2259105D1*
X2306979D2*
X2430073D1*
X1394381Y743793D2*
X1540995D1*
X1601445D2*
X1619779D1*
X1677644D2*
X1695978D1*
X1753447D2*
X1774382D1*
X1953908D2*
X2004774D1*
X2010296D2*
X2035726D1*
X2130444D2*
X2259105D1*
X2306979D2*
X2423738D1*
X1394381Y740801D2*
X1540995D1*
X1600134D2*
X1618816D1*
X1678607D2*
X1697288D1*
X1753451D2*
X1774381D1*
X1953908D2*
X2001782D1*
X2012546D2*
X2038071D1*
X2130444D2*
X2259105D1*
X2306979D2*
X2416450D1*
X1394381Y737808D2*
X1415325D1*
X1520050D2*
X1540995D1*
X1598962D2*
X1617798D1*
X1679625D2*
X1698461D1*
X1753554D2*
X1774381D1*
X1953908D2*
X1998790D1*
X2014752D2*
X2040396D1*
X2130444D2*
X2259105D1*
X2306979D2*
X2409359D1*
X1394381Y734816D2*
X1415325D1*
X1520050D2*
X1540995D1*
X1597912D2*
X1616888D1*
X1680535D2*
X1699511D1*
X1753934D2*
X1774381D1*
X1953908D2*
X1995786D1*
X2017115D2*
X2042542D1*
X2130444D2*
X2151388D1*
X2306979D2*
X2402727D1*
X1394381Y731824D2*
X1415325D1*
X1520050D2*
X1540995D1*
X1596757D2*
X1616264D1*
X1681159D2*
X1700665D1*
X1754651D2*
X1774392D1*
X1953908D2*
X1992689D1*
X2019448D2*
X2044702D1*
X2130444D2*
X2151388D1*
X2306979D2*
X2327924D1*
X2374622D2*
X2406730D1*
X1394381Y728832D2*
X1415325D1*
X1520050D2*
X1540995D1*
X1595461D2*
X1701962D1*
X1755418D2*
X1774497D1*
X1953908D2*
X1989315D1*
X2021596D2*
X2047047D1*
X2130444D2*
X2151388D1*
X2306979D2*
X2327924D1*
X2381114D2*
X2410508D1*
X1394381Y725840D2*
X1415325D1*
X1520050D2*
X1540995D1*
X1594150D2*
X1703272D1*
X1755940D2*
X1774879D1*
X1953908D2*
X1985618D1*
X2023757D2*
X2049373D1*
X2130444D2*
X2151388D1*
X2306979D2*
X2327924D1*
X2386110D2*
X2413686D1*
X1394381Y722848D2*
X1415325D1*
X1520050D2*
X1540995D1*
X1592978D2*
X1704445D1*
X1756229D2*
X1775595D1*
X1953908D2*
X1981976D1*
X2026102D2*
X2051507D1*
X2130444D2*
X2151388D1*
X2306979D2*
X2327924D1*
X2390074D2*
X2416254D1*
X1394381Y719856D2*
X1415325D1*
X1520050D2*
X1540995D1*
X1591928D2*
X1705495D1*
X1756461D2*
X1776374D1*
X1953908D2*
X1978960D1*
X2028428D2*
X2053573D1*
X2130444D2*
X2151388D1*
X2306979D2*
X2327924D1*
X2393475D2*
X2418612D1*
X1394381Y716864D2*
X1415325D1*
X1520050D2*
X1540995D1*
X1590773D2*
X1706650D1*
X1756895D2*
X1777001D1*
X1953908D2*
X1976564D1*
X2030574D2*
X2055642D1*
X2130444D2*
X2151388D1*
X2306979D2*
X2327924D1*
X2396529D2*
X2421124D1*
X1394381Y713871D2*
X1415325D1*
X1520050D2*
X1540995D1*
X1589476D2*
X1707946D1*
X1757643D2*
X1777660D1*
X1897058D2*
X1900050D1*
X1953908D2*
X1975683D1*
X2032734D2*
X2057632D1*
X2130444D2*
X2151388D1*
X2306979D2*
X2327924D1*
X2399203D2*
X2423754D1*
X1394381Y710879D2*
X1415325D1*
X1520050D2*
X1540995D1*
X1588166D2*
X1709257D1*
X1758523D2*
X1778515D1*
X1896023D2*
X1909026D1*
X1953908D2*
X1975206D1*
X2035078D2*
X2059716D1*
X2130444D2*
X2151388D1*
X2306979D2*
X2327924D1*
X2401489D2*
X2426246D1*
X1394381Y707887D2*
X1415325D1*
X1520050D2*
X1540995D1*
X1586993D2*
X1606359D1*
X1691063D2*
X1710429D1*
X1759429D2*
X1779440D1*
X1895027D2*
X1918003D1*
X1953908D2*
X1974991D1*
X2037404D2*
X2062028D1*
X2130444D2*
X2151388D1*
X2306979D2*
X2327924D1*
X2403616D2*
X2428460D1*
X1394381Y704895D2*
X1415325D1*
X1520050D2*
X1540995D1*
X1585943D2*
X1605606D1*
X1691817D2*
X1711479D1*
X1760435D2*
X1780375D1*
X1894067D2*
X1916507D1*
X1953908D2*
X1974904D1*
X2039550D2*
X2064341D1*
X2130444D2*
X2151388D1*
X2306979D2*
X2327924D1*
X2405708D2*
X2430560D1*
X1394381Y701903D2*
X1415325D1*
X1520050D2*
X1540995D1*
X1584789D2*
X1604726D1*
X1692697D2*
X1712634D1*
X1761435D2*
X1781494D1*
X1892941D2*
X1915265D1*
X1953908D2*
X1974871D1*
X2041710D2*
X2066482D1*
X2130444D2*
X2151388D1*
X2306979D2*
X2327924D1*
X2407695D2*
X2432642D1*
X1394381Y698911D2*
X1415325D1*
X1520050D2*
X1540995D1*
X1583492D2*
X1603809D1*
X1693614D2*
X1713931D1*
X1762402D2*
X1782888D1*
X1891555D2*
X1914101D1*
X1953908D2*
X1974859D1*
X2044055D2*
X2068640D1*
X2130444D2*
X2151388D1*
X2306979D2*
X2327924D1*
X2409688D2*
X2434626D1*
X1394381Y695919D2*
X1415325D1*
X1520050D2*
X1540995D1*
X1582182D2*
X1602709D1*
X1694714D2*
X1715241D1*
X1763522D2*
X1784678D1*
X1889869D2*
X1913024D1*
X1953908D2*
X1974855D1*
X2046381D2*
X2070984D1*
X2130444D2*
X2151388D1*
X2306979D2*
X2327924D1*
X2411725D2*
X2436618D1*
X1394381Y692927D2*
X1415325D1*
X1520050D2*
X1540995D1*
X1581009D2*
X1601433D1*
X1695989D2*
X1716414D1*
X1764816D2*
X1786958D1*
X1887970D2*
X1911937D1*
X1953908D2*
X1974854D1*
X2048527D2*
X2073310D1*
X2130444D2*
X2151388D1*
X2306979D2*
X2327924D1*
X2413691D2*
X2438643D1*
X1394381Y689934D2*
X1415325D1*
X1520050D2*
X1540995D1*
X1579959D2*
X1600130D1*
X1697292D2*
X1717464D1*
X1766227D2*
X1789597D1*
X1886049D2*
X1910521D1*
X1953908D2*
X1974853D1*
X2050686D2*
X2075456D1*
X2130444D2*
X2151388D1*
X2306979D2*
X2327924D1*
X2415677D2*
X2440515D1*
X1394381Y686942D2*
X1415325D1*
X1520050D2*
X1540995D1*
X1578804D2*
X1598960D1*
X1698462D2*
X1718618D1*
X1767779D2*
X1792445D1*
X1883968D2*
X1908782D1*
X1953908D2*
X1974853D1*
X2053031D2*
X2077616D1*
X2130444D2*
X2151388D1*
X2306979D2*
X2327924D1*
X2417699D2*
X2442224D1*
X1394381Y683950D2*
X1415325D1*
X1520050D2*
X1540995D1*
X1577508D2*
X1597923D1*
X1699500D2*
X1719915D1*
X1769545D2*
X1795491D1*
X1881443D2*
X1906951D1*
X1953908D2*
X1974853D1*
X2055357D2*
X2079960D1*
X2130444D2*
X2151388D1*
X2306979D2*
X2327924D1*
X2419571D2*
X2443911D1*
X1394381Y680958D2*
X1415325D1*
X1520050D2*
X1540995D1*
X1576197D2*
X1596862D1*
X1700560D2*
X1721225D1*
X1771478D2*
X1798969D1*
X1878243D2*
X1905020D1*
X1953908D2*
X1974853D1*
X2057503D2*
X2082286D1*
X2130444D2*
X2151388D1*
X2306979D2*
X2327924D1*
X2421280D2*
X2445733D1*
X1394381Y677966D2*
X1415325D1*
X1520050D2*
X1540995D1*
X1575025D2*
X1595842D1*
X1701581D2*
X1722398D1*
X1773413D2*
X1803401D1*
X1873937D2*
X1903008D1*
X1953908D2*
X1974853D1*
X2059663D2*
X2084432D1*
X2130444D2*
X2151388D1*
X2306979D2*
X2327924D1*
X2422966D2*
X2447675D1*
X1394381Y674974D2*
X1415325D1*
X1520050D2*
X1540995D1*
X1573975D2*
X1594867D1*
X1702544D2*
X1723448D1*
X1775499D2*
X1810009D1*
X1867382D2*
X1901027D1*
X1953908D2*
X1974853D1*
X2062007D2*
X2086592D1*
X2130444D2*
X2151388D1*
X2306979D2*
X2327924D1*
X2424788D2*
X2449513D1*
X1394381Y671982D2*
X1415325D1*
X1520050D2*
X1540995D1*
X1572820D2*
X1593745D1*
X1703573D2*
X1724602D1*
X1778014D2*
X1821332D1*
X1856080D2*
X1898834D1*
X1953908D2*
X1974853D1*
X2064333D2*
X2088937D1*
X2130444D2*
X2151388D1*
X2306979D2*
X2327924D1*
X2426742D2*
X2451209D1*
X1394381Y668990D2*
X1415325D1*
X1520050D2*
X1540995D1*
X1571524D2*
X1592461D1*
X1704580D2*
X1725899D1*
X1781087D2*
X1839240D1*
X1838179D2*
X1896026D1*
X1953908D2*
X1974853D1*
X2066479D2*
X2091262D1*
X2130444D2*
X2268081D1*
X2306979D2*
X2327924D1*
X2428673D2*
X2452890D1*
X1394381Y665997D2*
X1415325D1*
X1520050D2*
X1540995D1*
X1570213D2*
X1591156D1*
X1705550D2*
X1727209D1*
X1784683D2*
X1892511D1*
X1953908D2*
X1974853D1*
X2068639D2*
X2093408D1*
X2130444D2*
X2268081D1*
X2306979D2*
X2327924D1*
X2430645D2*
X2454710D1*
X1394381Y663005D2*
X1415325D1*
X1520050D2*
X1540995D1*
X1569041D2*
X1589985D1*
X1706671D2*
X1728382D1*
X1788609D2*
X1888482D1*
X1953908D2*
X1974853D1*
X2070984D2*
X2095568D1*
X2130444D2*
X2268081D1*
X2306979D2*
X2327924D1*
X2432674D2*
X2456652D1*
X1394381Y660013D2*
X1415325D1*
X1520050D2*
X1540995D1*
X1568000D2*
X1588945D1*
X1707956D2*
X1729423D1*
X1793017D2*
X1884061D1*
X1953908D2*
X1974853D1*
X2073308D2*
X2097904D1*
X2130444D2*
X2268081D1*
X2306979D2*
X2327924D1*
X2434648D2*
X2458480D1*
X1394381Y657021D2*
X1415325D1*
X1520050D2*
X1540995D1*
X1566925D2*
X1587869D1*
X1709277D2*
X1730498D1*
X1798552D2*
X1878936D1*
X1953908D2*
X1974853D1*
X2075428D2*
X2100148D1*
X2130444D2*
X2268081D1*
X2306979D2*
X2327924D1*
X2436731D2*
X2460087D1*
X1394381Y654029D2*
X1415325D1*
X1520050D2*
X1540995D1*
X1565880D2*
X1586825D1*
X1710483D2*
X1731542D1*
X1805810D2*
X1872430D1*
X1953908D2*
X1974853D1*
X2077475D2*
X2101983D1*
X2130444D2*
X2268081D1*
X2306979D2*
X2327924D1*
X2439098D2*
X2461427D1*
X1394381Y651037D2*
X1415325D1*
X1520050D2*
X1540995D1*
X1564932D2*
X1585877D1*
X1711546D2*
X1732491D1*
X1814972D2*
X1864244D1*
X1953908D2*
X1974853D1*
X2079577D2*
X2103514D1*
X2130444D2*
X2268081D1*
X2306979D2*
X2327924D1*
X2441625D2*
X2462570D1*
X1825247Y648045D2*
X1855168D1*
X1828239Y839541D2*
X1818469Y836549D1*
X1809888Y833556D1*
X1802583Y830564D1*
X1796418Y827572D1*
X1791361Y824580D1*
X1787245Y821588D1*
X1783723Y818596D1*
X1780505Y815604D1*
X1777435Y812612D1*
X1774515Y809619D1*
X1771904Y806627D1*
X1769730Y803635D1*
X1767897Y800643D1*
X1766248Y797651D1*
X1764693Y794659D1*
X1763183Y791667D1*
X1761775Y788675D1*
X1760561Y785682D1*
X1759507Y782690D1*
X1758452Y779698D1*
X1757535Y776706D1*
X1756952Y773714D1*
X1756640Y770722D1*
X1756399Y767730D1*
X1755962Y764738D1*
X1755225Y761745D1*
X1754450Y758753D1*
X1753925Y755761D1*
X1753647Y752769D1*
X1753520Y749777D1*
X1753467Y746785D1*
X1753447Y743793D1*
X1753451Y740801D1*
X1753554Y737808D1*
X1753934Y734816D1*
X1754651Y731824D1*
X1755418Y728832D1*
X1755940Y725840D1*
X1756229Y722848D1*
X1756461Y719856D1*
X1756895Y716864D1*
X1757643Y713871D1*
X1758523Y710879D1*
X1759429Y707887D1*
X1760435Y704895D1*
X1761435Y701903D1*
X1762402Y698911D1*
X1763522Y695919D1*
X1764816Y692927D1*
X1766227Y689934D1*
X1767779Y686942D1*
X1769545Y683950D1*
X1771478Y680958D1*
X1773413Y677966D1*
X1775499Y674974D1*
X1778014Y671982D1*
X1781087Y668990D1*
X1784683Y665997D1*
X1788609Y663005D1*
X1793017Y660013D1*
X1798552Y657021D1*
X1805810Y654029D1*
X1814972Y651037D1*
X1825247Y648045D1*
X1855168Y839541D2*
X1864824Y836549D1*
X1873022Y833556D1*
X1879609Y830564D1*
X1885007Y827572D1*
X1889531Y824580D1*
X1893264Y821588D1*
X1896278Y818596D1*
X1898715Y815604D1*
X1900903Y812612D1*
X1903006Y809619D1*
X1904909Y806627D1*
X1906617Y803635D1*
X1908214Y800643D1*
X1909758Y797651D1*
X1911350Y794659D1*
X1913101Y791667D1*
X1915010Y788675D1*
X1906221Y785682D1*
X1897058Y782690D1*
X1394381Y836549D2*
Y833556D1*
Y830564D1*
Y827572D1*
Y824580D1*
Y821588D1*
Y818596D1*
Y815604D1*
Y812612D1*
Y809619D1*
Y806627D1*
Y803635D1*
Y800643D1*
Y797651D1*
Y794659D1*
Y791667D1*
Y788675D1*
Y785682D1*
Y782690D1*
Y779698D1*
Y776706D1*
Y773714D1*
Y770722D1*
Y767730D1*
Y764738D1*
Y761745D1*
Y758753D1*
Y755761D1*
Y752769D1*
Y749777D1*
Y746785D1*
Y743793D1*
Y740801D1*
Y737808D1*
Y734816D1*
Y731824D1*
Y728832D1*
Y725840D1*
Y722848D1*
Y719856D1*
Y716864D1*
Y713871D1*
Y710879D1*
Y707887D1*
Y704895D1*
Y701903D1*
Y698911D1*
Y695919D1*
Y692927D1*
Y689934D1*
Y686942D1*
Y683950D1*
Y680958D1*
Y677966D1*
Y674974D1*
Y671982D1*
Y668990D1*
Y665997D1*
Y663005D1*
Y660013D1*
Y657021D1*
Y654029D1*
Y651037D1*
X1415325Y836549D2*
Y833556D1*
Y830564D1*
Y827572D1*
Y824580D1*
Y821588D1*
Y818596D1*
Y815604D1*
Y812612D1*
Y809619D1*
Y806627D1*
Y803635D1*
Y800643D1*
Y797651D1*
Y794659D1*
Y791667D1*
Y788675D1*
Y785682D1*
Y782690D1*
Y779698D1*
Y776706D1*
Y773714D1*
Y770722D1*
Y767730D1*
Y764738D1*
Y761745D1*
Y758753D1*
X1520050Y836549D2*
Y833556D1*
Y830564D1*
Y827572D1*
Y824580D1*
Y821588D1*
Y818596D1*
Y815604D1*
Y812612D1*
Y809619D1*
Y806627D1*
Y803635D1*
Y800643D1*
Y797651D1*
Y794659D1*
Y791667D1*
Y788675D1*
Y785682D1*
Y782690D1*
Y779698D1*
Y776706D1*
Y773714D1*
Y770722D1*
Y767730D1*
Y764738D1*
Y761745D1*
Y758753D1*
X1540995Y836549D2*
Y833556D1*
Y830564D1*
Y827572D1*
Y824580D1*
Y821588D1*
Y818596D1*
Y815604D1*
Y812612D1*
Y809619D1*
Y806627D1*
Y803635D1*
Y800643D1*
Y797651D1*
Y794659D1*
Y791667D1*
Y788675D1*
Y785682D1*
Y782690D1*
Y779698D1*
Y776706D1*
Y773714D1*
Y770722D1*
Y767730D1*
Y764738D1*
Y761745D1*
Y758753D1*
Y755761D1*
Y752769D1*
Y749777D1*
Y746785D1*
Y743793D1*
Y740801D1*
Y737808D1*
Y734816D1*
Y731824D1*
Y728832D1*
Y725840D1*
Y722848D1*
Y719856D1*
Y716864D1*
Y713871D1*
Y710879D1*
Y707887D1*
Y704895D1*
Y701903D1*
Y698911D1*
Y695919D1*
Y692927D1*
Y689934D1*
Y686942D1*
Y683950D1*
Y680958D1*
Y677966D1*
Y674974D1*
Y671982D1*
Y668990D1*
Y665997D1*
Y663005D1*
Y660013D1*
Y657021D1*
Y654029D1*
Y651037D1*
X1639735Y836549D2*
X1637891Y833556D1*
X1636278Y830564D1*
X1634964Y827572D1*
X1633854Y824580D1*
X1632676Y821588D1*
X1631371Y818596D1*
X1630057Y815604D1*
X1628884Y812612D1*
X1627833Y809619D1*
X1626678Y806627D1*
X1625382Y803635D1*
X1624071Y800643D1*
X1622899Y797651D1*
X1621849Y794659D1*
X1620694Y791667D1*
X1619398Y788675D1*
X1618087Y785682D1*
X1616915Y782690D1*
X1615865Y779698D1*
X1614710Y776706D1*
X1613413Y773714D1*
X1612103Y770722D1*
X1610930Y767730D1*
X1609880Y764738D1*
X1608726Y761745D1*
X1607429Y758753D1*
X1606119Y755761D1*
X1604946Y752769D1*
X1603896Y749777D1*
X1602741Y746785D1*
X1601445Y743793D1*
X1600134Y740801D1*
X1598962Y737808D1*
X1597912Y734816D1*
X1596757Y731824D1*
X1595461Y728832D1*
X1594150Y725840D1*
X1592978Y722848D1*
X1591928Y719856D1*
X1590773Y716864D1*
X1589476Y713871D1*
X1588166Y710879D1*
X1586993Y707887D1*
X1585943Y704895D1*
X1584789Y701903D1*
X1583492Y698911D1*
X1582182Y695919D1*
X1581009Y692927D1*
X1579959Y689934D1*
X1578804Y686942D1*
X1577508Y683950D1*
X1576197Y680958D1*
X1575025Y677966D1*
X1573975Y674974D1*
X1572820Y671982D1*
X1571524Y668990D1*
X1570213Y665997D1*
X1569041Y663005D1*
X1568000Y660013D1*
X1566925Y657021D1*
X1565880Y654029D1*
X1564932Y651037D1*
X1657688Y836549D2*
X1659531Y833556D1*
X1661144Y830564D1*
X1662459Y827572D1*
X1663569Y824580D1*
X1664747Y821588D1*
X1666052Y818596D1*
X1667365Y815604D1*
X1668539Y812612D1*
X1669589Y809619D1*
X1670744Y806627D1*
X1672041Y803635D1*
X1673351Y800643D1*
X1674524Y797651D1*
X1675574Y794659D1*
X1676728Y791667D1*
X1678025Y788675D1*
X1679335Y785682D1*
X1680508Y782690D1*
X1681558Y779698D1*
X1682713Y776706D1*
X1684009Y773714D1*
X1685320Y770722D1*
X1686492Y767730D1*
X1687542Y764738D1*
X1688697Y761745D1*
X1689994Y758753D1*
X1691304Y755761D1*
X1692477Y752769D1*
X1693527Y749777D1*
X1694681Y746785D1*
X1695978Y743793D1*
X1697288Y740801D1*
X1698461Y737808D1*
X1699511Y734816D1*
X1700665Y731824D1*
X1701962Y728832D1*
X1703272Y725840D1*
X1704445Y722848D1*
X1705495Y719856D1*
X1706650Y716864D1*
X1707946Y713871D1*
X1709257Y710879D1*
X1710429Y707887D1*
X1711479Y704895D1*
X1712634Y701903D1*
X1713931Y698911D1*
X1715241Y695919D1*
X1716414Y692927D1*
X1717464Y689934D1*
X1718618Y686942D1*
X1719915Y683950D1*
X1721225Y680958D1*
X1722398Y677966D1*
X1723448Y674974D1*
X1724602Y671982D1*
X1725899Y668990D1*
X1727209Y665997D1*
X1728382Y663005D1*
X1729423Y660013D1*
X1730498Y657021D1*
X1731542Y654029D1*
X1732491Y651037D1*
X1953908Y836549D2*
Y833556D1*
Y830564D1*
Y827572D1*
Y824580D1*
Y821588D1*
Y818596D1*
Y815604D1*
Y812612D1*
Y809619D1*
Y806627D1*
Y803635D1*
Y800643D1*
Y797651D1*
Y794659D1*
Y791667D1*
Y788675D1*
Y785682D1*
Y782690D1*
Y779698D1*
Y776706D1*
Y773714D1*
Y770722D1*
Y767730D1*
Y764738D1*
Y761745D1*
Y758753D1*
Y755761D1*
Y752769D1*
Y749777D1*
Y746785D1*
Y743793D1*
Y740801D1*
Y737808D1*
Y734816D1*
Y731824D1*
Y728832D1*
Y725840D1*
Y722848D1*
Y719856D1*
Y716864D1*
Y713871D1*
Y710879D1*
Y707887D1*
Y704895D1*
Y701903D1*
Y698911D1*
Y695919D1*
Y692927D1*
Y689934D1*
Y686942D1*
Y683950D1*
Y680958D1*
Y677966D1*
Y674974D1*
Y671982D1*
Y668990D1*
Y665997D1*
Y663005D1*
Y660013D1*
Y657021D1*
Y654029D1*
Y651037D1*
X1974853Y836549D2*
Y833556D1*
Y830564D1*
Y827572D1*
Y824580D1*
Y821588D1*
Y818596D1*
Y815604D1*
Y812612D1*
Y809619D1*
Y806627D1*
Y803635D1*
Y800643D1*
Y797651D1*
Y794659D1*
Y791667D1*
Y788675D1*
Y785682D1*
Y782690D1*
Y779698D1*
Y776706D1*
Y773714D1*
Y770722D1*
Y767730D1*
Y764738D1*
Y761745D1*
X1974865Y758753D1*
X1974979Y755761D1*
X1975441Y752769D1*
X1976464Y749777D1*
X1977845Y746785D1*
X2070601Y836549D2*
X2067609Y833556D1*
X2064617Y830564D1*
X2061625Y827572D1*
X2058633Y824580D1*
X2055640Y821588D1*
X2052648Y818596D1*
X2049656Y815604D1*
X2046664Y812612D1*
X2043672Y809619D1*
X2040680Y806627D1*
X2037688Y803635D1*
X2034696Y800643D1*
X2031703Y797651D1*
X2028711Y794659D1*
X2025719Y791667D1*
X2022715Y788675D1*
X2019618Y785682D1*
X2016245Y782690D1*
X2012536Y779698D1*
X2008777Y776706D1*
X2005263Y773714D1*
X2001993Y770722D1*
X1998874Y767730D1*
X1995829Y764738D1*
X1992817Y761745D1*
X1989806Y758753D1*
X1986697Y755761D1*
X1983242Y752769D1*
X1979226Y749777D1*
X1974853Y746785D1*
X2100522Y836549D2*
X2097530Y833556D1*
X2094538Y830564D1*
X2091546Y827572D1*
X2088554Y824580D1*
X2085562Y821588D1*
X2082570Y818596D1*
X2079577Y815604D1*
X2076585Y812612D1*
X2073593Y809619D1*
X2070601Y806627D1*
X2067609Y803635D1*
X2064617Y800643D1*
X2061613Y797651D1*
X2058516Y794659D1*
X2055142Y791667D1*
X2051433Y788675D1*
X2047674Y785682D1*
X2044160Y782690D1*
X2040891Y779698D1*
X2037772Y776706D1*
X2034727Y773714D1*
X2031715Y770722D1*
X2028715Y767730D1*
X2025720Y764738D1*
X2022727Y761745D1*
X2024696Y758753D1*
X2026786Y755761D1*
X2029106Y752769D1*
X2031424Y749777D1*
X2033567Y746785D1*
X2035726Y743793D1*
X2038071Y740801D1*
X2040396Y737808D1*
X2042542Y734816D1*
X2044702Y731824D1*
X2047047Y728832D1*
X2049373Y725840D1*
X2051507Y722848D1*
X2053573Y719856D1*
X2055642Y716864D1*
X2057632Y713871D1*
X2059716Y710879D1*
X2062028Y707887D1*
X2064341Y704895D1*
X2066482Y701903D1*
X2068640Y698911D1*
X2070984Y695919D1*
X2073310Y692927D1*
X2075456Y689934D1*
X2077616Y686942D1*
X2079960Y683950D1*
X2082286Y680958D1*
X2084432Y677966D1*
X2086592Y674974D1*
X2088937Y671982D1*
X2091262Y668990D1*
X2093408Y665997D1*
X2095568Y663005D1*
X2097904Y660013D1*
X2100148Y657021D1*
X2101983Y654029D1*
X2103514Y651037D1*
X2130444Y836549D2*
Y833556D1*
Y830564D1*
Y827572D1*
Y824580D1*
Y821588D1*
Y818596D1*
Y815604D1*
Y812612D1*
Y809619D1*
Y806627D1*
Y803635D1*
Y800643D1*
Y797651D1*
Y794659D1*
Y791667D1*
Y788675D1*
Y785682D1*
Y782690D1*
Y779698D1*
Y776706D1*
Y773714D1*
Y770722D1*
Y767730D1*
Y764738D1*
Y761745D1*
Y758753D1*
Y755761D1*
Y752769D1*
Y749777D1*
Y746785D1*
Y743793D1*
Y740801D1*
Y737808D1*
Y734816D1*
Y731824D1*
Y728832D1*
Y725840D1*
Y722848D1*
Y719856D1*
Y716864D1*
Y713871D1*
Y710879D1*
Y707887D1*
Y704895D1*
Y701903D1*
Y698911D1*
Y695919D1*
Y692927D1*
Y689934D1*
Y686942D1*
Y683950D1*
Y680958D1*
Y677966D1*
Y674974D1*
Y671982D1*
Y668990D1*
Y665997D1*
Y663005D1*
Y660013D1*
Y657021D1*
Y654029D1*
Y651037D1*
X2265089Y836549D2*
Y833556D1*
Y830564D1*
Y827572D1*
Y824580D1*
Y821588D1*
Y818596D1*
X2306979Y836549D2*
Y833556D1*
Y830564D1*
Y827572D1*
Y824580D1*
Y821588D1*
Y818596D1*
Y815604D1*
Y812612D1*
Y809619D1*
Y806627D1*
Y803635D1*
Y800643D1*
Y797651D1*
Y794659D1*
Y791667D1*
Y788675D1*
Y785682D1*
Y782690D1*
Y779698D1*
Y776706D1*
Y773714D1*
Y770722D1*
Y767730D1*
Y764738D1*
Y761745D1*
Y758753D1*
Y755761D1*
Y752769D1*
Y749777D1*
Y746785D1*
Y743793D1*
Y740801D1*
Y737808D1*
Y734816D1*
Y731824D1*
Y728832D1*
Y725840D1*
Y722848D1*
Y719856D1*
Y716864D1*
Y713871D1*
Y710879D1*
Y707887D1*
Y704895D1*
Y701903D1*
Y698911D1*
Y695919D1*
Y692927D1*
Y689934D1*
Y686942D1*
Y683950D1*
Y680958D1*
Y677966D1*
Y674974D1*
Y671982D1*
Y668990D1*
Y665997D1*
Y663005D1*
Y660013D1*
Y657021D1*
Y654029D1*
Y651037D1*
X2405719Y836549D2*
X2416396Y833556D1*
X2424978Y830564D1*
X2431456Y827572D1*
X2436192Y824580D1*
X2439554Y821588D1*
X2442178Y818596D1*
X2444466Y815604D1*
X2446430Y812612D1*
X2448060Y809619D1*
X2449285Y806627D1*
X2450107Y803635D1*
X2450843Y800643D1*
X2451716Y797651D1*
X2452546Y794659D1*
X2453092Y791667D1*
X2453378Y788675D1*
X2453496Y785682D1*
X2453444Y782690D1*
X2453084Y779698D1*
X2452363Y776706D1*
X2451493Y773714D1*
X2450579Y770722D1*
X2449468Y767730D1*
X2448076Y764738D1*
X2446287Y761745D1*
X2444007Y758753D1*
X2441358Y755761D1*
X2438393Y752769D1*
X2434837Y749777D1*
X2430073Y746785D1*
X2423738Y743793D1*
X2416450Y740801D1*
X2409359Y737808D1*
X2402727Y734816D1*
X2406730Y731824D1*
X2410508Y728832D1*
X2413686Y725840D1*
X2416254Y722848D1*
X2418612Y719856D1*
X2421124Y716864D1*
X2423754Y713871D1*
X2426246Y710879D1*
X2428460Y707887D1*
X2430560Y704895D1*
X2432642Y701903D1*
X2434626Y698911D1*
X2436618Y695919D1*
X2438643Y692927D1*
X2440515Y689934D1*
X2442224Y686942D1*
X2443911Y683950D1*
X2445733Y680958D1*
X2447675Y677966D1*
X2449513Y674974D1*
X2451209Y671982D1*
X2452890Y668990D1*
X2454710Y665997D1*
X2456652Y663005D1*
X2458480Y660013D1*
X2460087Y657021D1*
X2461427Y654029D1*
X2462570Y651037D1*
X1831231Y821588D2*
X1822854Y818596D1*
X1815237Y815604D1*
X1808749Y812612D1*
X1803494Y809619D1*
X1799281Y806627D1*
X1795717Y803635D1*
X1792494Y800643D1*
X1789512Y797651D1*
X1786878Y794659D1*
X1784707Y791667D1*
X1782964Y788675D1*
X1781602Y785682D1*
X1780487Y782690D1*
X1779409Y779698D1*
X1778472Y776706D1*
X1777781Y773714D1*
X1777098Y770722D1*
X1776246Y767730D1*
X1775424Y764738D1*
X1774881Y761745D1*
X1774595Y758753D1*
X1774466Y755761D1*
X1774412Y752769D1*
X1774392Y749777D1*
X1774384Y746785D1*
X1774382Y743793D1*
X1774381Y740801D1*
Y737808D1*
Y734816D1*
X1774392Y731824D1*
X1774497Y728832D1*
X1774879Y725840D1*
X1775595Y722848D1*
X1776374Y719856D1*
X1777001Y716864D1*
X1777660Y713871D1*
X1778515Y710879D1*
X1779440Y707887D1*
X1780375Y704895D1*
X1781494Y701903D1*
X1782888Y698911D1*
X1784678Y695919D1*
X1786958Y692927D1*
X1789597Y689934D1*
X1792445Y686942D1*
X1795491Y683950D1*
X1798969Y680958D1*
X1803401Y677966D1*
X1810009Y674974D1*
X1821332Y671982D1*
X1839240Y668990D1*
X1861152Y665997D1*
X1849184Y821588D2*
X1857446Y818596D1*
X1864680Y815604D1*
X1870451Y812612D1*
X1874939Y809619D1*
X1878618Y806627D1*
X1881800Y803635D1*
X1884514Y800643D1*
X1886715Y797651D1*
X1888469Y794659D1*
X1889843Y791667D1*
X1891043Y788675D1*
X1892446Y785682D1*
X1894066Y782690D1*
X1645719Y818596D2*
X1645257Y815604D1*
X1644503Y812612D1*
X1643623Y809619D1*
X1642718Y806627D1*
X1641712Y803635D1*
X1640712Y800643D1*
X1639756Y797651D1*
X1638730Y794659D1*
X1637724Y791667D1*
X1636754Y788675D1*
X1635634Y785682D1*
X1634351Y782690D1*
X1633045Y779698D1*
X1631874Y776706D1*
X1630837Y773714D1*
X1629776Y770722D1*
X1628755Y767730D1*
X1627780Y764738D1*
X1626658Y761745D1*
X1625374Y758753D1*
X1624069Y755761D1*
X1622898Y752769D1*
X1621860Y749777D1*
X1620799Y746785D1*
X1619779Y743793D1*
X1618816Y740801D1*
X1617798Y737808D1*
X1616888Y734816D1*
X1616264Y731824D1*
X1615798Y728832D1*
X1651703Y818596D2*
X1652166Y815604D1*
X1652919Y812612D1*
X1653799Y809619D1*
X1654705Y806627D1*
X1655711Y803635D1*
X1656710Y800643D1*
X1657666Y797651D1*
X1658692Y794659D1*
X1659699Y791667D1*
X1660669Y788675D1*
X1661789Y785682D1*
X1663072Y782690D1*
X1664377Y779698D1*
X1665548Y776706D1*
X1666586Y773714D1*
X1667647Y770722D1*
X1668667Y767730D1*
X1669642Y764738D1*
X1670764Y761745D1*
X1672048Y758753D1*
X1673354Y755761D1*
X1674525Y752769D1*
X1675562Y749777D1*
X1676623Y746785D1*
X1677644Y743793D1*
X1678607Y740801D1*
X1679625Y737808D1*
X1680535Y734816D1*
X1681159Y731824D1*
X1681625Y728832D1*
X2151388Y818596D2*
Y815604D1*
Y812612D1*
Y809619D1*
Y806627D1*
Y803635D1*
Y800643D1*
Y797651D1*
Y794659D1*
Y791667D1*
Y788675D1*
Y785682D1*
Y782690D1*
Y779698D1*
Y776706D1*
Y773714D1*
Y770722D1*
Y767730D1*
Y764738D1*
Y761745D1*
Y758753D1*
Y755761D1*
X2327924Y818596D2*
Y815604D1*
Y812612D1*
Y809619D1*
Y806627D1*
Y803635D1*
Y800643D1*
Y797651D1*
Y794659D1*
Y791667D1*
Y788675D1*
Y785682D1*
Y782690D1*
Y779698D1*
Y776706D1*
Y773714D1*
Y770722D1*
Y767730D1*
Y764738D1*
Y761745D1*
Y758753D1*
Y755761D1*
Y752769D1*
X2399735Y818596D2*
X2407535Y815604D1*
X2414027Y812612D1*
X2419012Y809619D1*
X2422871Y806627D1*
X2425890Y803635D1*
X2428216Y800643D1*
X2430006Y797651D1*
X2431283Y794659D1*
X2432024Y791667D1*
X2432388Y788675D1*
X2432535Y785682D1*
X2432494Y782690D1*
X2432125Y779698D1*
X2431300Y776706D1*
X2430038Y773714D1*
X2428291Y770722D1*
X2425903Y767730D1*
X2422657Y764738D1*
X2418111Y761745D1*
X2412000Y758753D1*
X2404638Y755761D1*
X2396743Y752769D1*
X2259105Y755761D2*
Y752769D1*
Y749777D1*
Y746785D1*
Y743793D1*
Y740801D1*
Y737808D1*
X2007766Y746785D2*
X2004774Y743793D1*
X2001782Y740801D1*
X1998790Y737808D1*
X1995786Y734816D1*
X1992689Y731824D1*
X1989315Y728832D1*
X1985618Y725840D1*
X1981976Y722848D1*
X1978960Y719856D1*
X1976564Y716864D1*
X1975683Y713871D1*
X1975206Y710879D1*
X1974991Y707887D1*
X1974904Y704895D1*
X1974871Y701903D1*
X1974859Y698911D1*
X1974855Y695919D1*
X1974854Y692927D1*
X1974853Y689934D1*
Y686942D1*
Y683950D1*
Y680958D1*
Y677966D1*
Y674974D1*
Y671982D1*
Y668990D1*
Y665997D1*
Y663005D1*
Y660013D1*
Y657021D1*
Y654029D1*
Y651037D1*
X2007766Y746785D2*
X2010296Y743793D1*
X2012546Y740801D1*
X2014752Y737808D1*
X2017115Y734816D1*
X2019448Y731824D1*
X2021596Y728832D1*
X2023757Y725840D1*
X2026102Y722848D1*
X2028428Y719856D1*
X2030574Y716864D1*
X2032734Y713871D1*
X2035078Y710879D1*
X2037404Y707887D1*
X2039550Y704895D1*
X2041710Y701903D1*
X2044055Y698911D1*
X2046381Y695919D1*
X2048527Y692927D1*
X2050686Y689934D1*
X2053031Y686942D1*
X2055357Y683950D1*
X2057503Y680958D1*
X2059663Y677966D1*
X2062007Y674974D1*
X2064333Y671982D1*
X2066479Y668990D1*
X2068639Y665997D1*
X2070984Y663005D1*
X2073308Y660013D1*
X2075428Y657021D1*
X2077475Y654029D1*
X2079577Y651037D1*
X1415325Y740801D2*
Y737808D1*
Y734816D1*
Y731824D1*
Y728832D1*
Y725840D1*
Y722848D1*
Y719856D1*
Y716864D1*
Y713871D1*
Y710879D1*
Y707887D1*
Y704895D1*
Y701903D1*
Y698911D1*
Y695919D1*
Y692927D1*
Y689934D1*
Y686942D1*
Y683950D1*
Y680958D1*
Y677966D1*
Y674974D1*
Y671982D1*
Y668990D1*
Y665997D1*
Y663005D1*
Y660013D1*
Y657021D1*
Y654029D1*
Y651037D1*
X1520050Y740801D2*
Y737808D1*
Y734816D1*
Y731824D1*
Y728832D1*
Y725840D1*
Y722848D1*
Y719856D1*
Y716864D1*
Y713871D1*
Y710879D1*
Y707887D1*
Y704895D1*
Y701903D1*
Y698911D1*
Y695919D1*
Y692927D1*
Y689934D1*
Y686942D1*
Y683950D1*
Y680958D1*
Y677966D1*
Y674974D1*
Y671982D1*
Y668990D1*
Y665997D1*
Y663005D1*
Y660013D1*
Y657021D1*
Y654029D1*
Y651037D1*
X2151388Y737808D2*
Y734816D1*
Y731824D1*
Y728832D1*
Y725840D1*
Y722848D1*
Y719856D1*
Y716864D1*
Y713871D1*
Y710879D1*
Y707887D1*
Y704895D1*
Y701903D1*
Y698911D1*
Y695919D1*
Y692927D1*
Y689934D1*
Y686942D1*
Y683950D1*
Y680958D1*
Y677966D1*
Y674974D1*
Y671982D1*
Y668990D1*
X2327924Y734816D2*
Y731824D1*
Y728832D1*
Y725840D1*
Y722848D1*
Y719856D1*
Y716864D1*
Y713871D1*
Y710879D1*
Y707887D1*
Y704895D1*
Y701903D1*
Y698911D1*
Y695919D1*
Y692927D1*
Y689934D1*
Y686942D1*
Y683950D1*
Y680958D1*
Y677966D1*
Y674974D1*
Y671982D1*
Y668990D1*
Y665997D1*
Y663005D1*
Y660013D1*
Y657021D1*
Y654029D1*
Y651037D1*
X2366822Y734816D2*
X2374622Y731824D1*
X2381114Y728832D1*
X2386110Y725840D1*
X2390074Y722848D1*
X2393475Y719856D1*
X2396529Y716864D1*
X2399203Y713871D1*
X2401489Y710879D1*
X2403616Y707887D1*
X2405708Y704895D1*
X2407695Y701903D1*
X2409688Y698911D1*
X2411725Y695919D1*
X2413691Y692927D1*
X2415677Y689934D1*
X2417699Y686942D1*
X2419571Y683950D1*
X2421280Y680958D1*
X2422966Y677966D1*
X2424788Y674974D1*
X2426742Y671982D1*
X2428673Y668990D1*
X2430645Y665997D1*
X2432674Y663005D1*
X2434648Y660013D1*
X2436731Y657021D1*
X2439098Y654029D1*
X2441625Y651037D1*
X1897058Y713871D2*
X1896023Y710879D1*
X1895027Y707887D1*
X1894067Y704895D1*
X1892941Y701903D1*
X1891555Y698911D1*
X1889869Y695919D1*
X1887970Y692927D1*
X1886049Y689934D1*
X1883968Y686942D1*
X1881443Y683950D1*
X1878243Y680958D1*
X1873937Y677966D1*
X1867382Y674974D1*
X1856080Y671982D1*
X1838179Y668990D1*
X1816270Y665997D1*
X1900050Y713871D2*
X1909026Y710879D1*
X1918003Y707887D1*
X1916507Y704895D1*
X1915265Y701903D1*
X1914101Y698911D1*
X1913024Y695919D1*
X1911937Y692927D1*
X1910521Y689934D1*
X1908782Y686942D1*
X1906951Y683950D1*
X1905020Y680958D1*
X1903008Y677966D1*
X1901027Y674974D1*
X1898834Y671982D1*
X1896026Y668990D1*
X1892511Y665997D1*
X1888482Y663005D1*
X1884061Y660013D1*
X1878936Y657021D1*
X1872430Y654029D1*
X1864244Y651037D1*
X1855168Y648045D1*
X1606822Y710879D2*
X1606359Y707887D1*
X1605606Y704895D1*
X1604726Y701903D1*
X1603809Y698911D1*
X1602709Y695919D1*
X1601433Y692927D1*
X1600130Y689934D1*
X1598960Y686942D1*
X1597923Y683950D1*
X1596862Y680958D1*
X1595842Y677966D1*
X1594867Y674974D1*
X1593745Y671982D1*
X1592461Y668990D1*
X1591156Y665997D1*
X1589985Y663005D1*
X1588945Y660013D1*
X1587869Y657021D1*
X1586825Y654029D1*
X1585877Y651037D1*
X1690601Y710879D2*
X1691063Y707887D1*
X1691817Y704895D1*
X1692697Y701903D1*
X1693614Y698911D1*
X1694714Y695919D1*
X1695989Y692927D1*
X1697292Y689934D1*
X1698462Y686942D1*
X1699500Y683950D1*
X1700560Y680958D1*
X1701581Y677966D1*
X1702544Y674974D1*
X1703573Y671982D1*
X1704580Y668990D1*
X1705550Y665997D1*
X1706671Y663005D1*
X1707956Y660013D1*
X1709277Y657021D1*
X1710483Y654029D1*
X1711546Y651037D1*
X2268081Y668990D2*
Y665997D1*
Y663005D1*
Y660013D1*
Y657021D1*
Y654029D1*
Y651037D1*
M02*
