%TF.GenerationSoftware,Novarm,DipTrace,3.0.0.2*%
%TF.CreationDate,2016-12-19T10:05:57+01:00*%
%FSLAX26Y26*%
%MOIN*%
%TF.FileFunction,Paste,Top*%
%TF.Part,Single*%
%AMOUTLINE2*
4,1,4,
-0.001392,-0.023663,
-0.023663,-0.001392,
0.001392,0.023663,
0.023663,0.001392,
-0.001392,-0.023663,
0*%
%AMOUTLINE8*
4,1,4,
-0.016703,-0.025056,
-0.025056,-0.016703,
0.016703,0.025056,
0.025056,0.016703,
-0.016703,-0.025056,
0*%
%AMOUTLINE11*
4,1,4,
-0.025056,0.016703,
-0.016703,0.025056,
0.025056,-0.016703,
0.016703,-0.025056,
-0.025056,0.016703,
0*%
%AMOUTLINE14*
4,1,4,
0.051501,-0.096044,
-0.096044,0.051501,
-0.051501,0.096044,
0.096044,-0.051501,
0.051501,-0.096044,
0*%
%ADD14C,0.019685*%
%ADD45R,0.043307X0.05315*%
%ADD51R,0.031496X0.035433*%
%ADD53R,0.035433X0.031496*%
%ADD55R,0.055118X0.062992*%
%ADD57R,0.169291X0.074803*%
%ADD59R,0.062992X0.055118*%
%ADD63R,0.192126X0.101969*%
%ADD71OUTLINE2*%
%ADD77OUTLINE8*%
%ADD80OUTLINE11*%
%ADD83OUTLINE14*%
G75*
G01*
%LPD*%
D14*
X2755906Y1200787D3*
X1614173D3*
X2332677Y1877953D3*
D63*
X1270146Y2321504D3*
Y1456543D3*
D59*
X2032112Y2149302D3*
Y2259538D3*
D57*
X1624895Y2516991D3*
X1979226D3*
D55*
X2184505Y2172432D3*
X2294741D3*
X1782375Y2024783D3*
X1892612D3*
X1776856Y2211908D3*
X1887092D3*
D71*
X1931913Y1938358D3*
X1884588Y1891033D3*
X2328319Y1559403D3*
X2280993Y1512077D3*
D53*
X1206755Y1196703D3*
X1273684D3*
D51*
X1792937Y1172604D3*
Y1239533D3*
X1950417Y1172604D3*
Y1239533D3*
X2107898Y1172604D3*
Y1239533D3*
X2265378Y1172604D3*
Y1239533D3*
X2422858Y1172604D3*
Y1239533D3*
X2580339Y1172604D3*
Y1239533D3*
X2136944Y2298396D3*
Y2365325D3*
X1635457Y936383D3*
Y869454D3*
X1792937Y936383D3*
Y869454D3*
X1950417Y936383D3*
Y869454D3*
X2107898Y936383D3*
Y869454D3*
X2265378Y936383D3*
Y869454D3*
X2422858Y936383D3*
Y869454D3*
X2580339Y936383D3*
Y869454D3*
D45*
X2254816Y2274606D3*
Y2587598D3*
X2431982Y2274606D3*
Y2587598D3*
D77*
X2068134Y1832728D3*
X2090406Y1810457D3*
X2112676Y1788185D3*
X2134948Y1765915D3*
X2157218Y1743643D3*
X2179490Y1721373D3*
X2201760Y1699101D3*
X2224031Y1676831D3*
D80*
X2301980D3*
X2324251Y1699101D3*
X2346522Y1721373D3*
X2368794Y1743643D3*
X2391064Y1765915D3*
X2413336Y1788185D3*
X2435606Y1810457D3*
X2457878Y1832728D3*
D77*
Y1910676D3*
X2435606Y1932948D3*
X2413336Y1955219D3*
X2391064Y1977490D3*
X2368794Y1999761D3*
X2346522Y2022031D3*
X2324251Y2044303D3*
X2301980Y2066573D3*
D80*
X2224031D3*
X2201760Y2044303D3*
X2179490Y2022031D3*
X2157218Y1999761D3*
X2134948Y1977490D3*
X2112676Y1955219D3*
X2090406Y1932948D3*
X2068134Y1910676D3*
D83*
X2143983Y1488438D3*
X1875282Y1757138D3*
M02*
